<?xml version="1.0" encoding="UTF-8" standalone="no"?>
<!-- Created with Inkscape (http://www.inkscape.org/) -->

<svg
   width="63.217327mm"
   height="63.097454mm"
   viewBox="0 0 63.217327 63.097454"
   version="1.1"
   id="svg1"
   xml:space="preserve"
   xmlns="http://www.w3.org/2000/svg"
   xmlns:svg="http://www.w3.org/2000/svg"><defs
     id="defs1" /><g
     id="layer1"
     transform="translate(-112.033,-16.348579)"><path
       style="fill:#000000"
       d="M 138.88253,74.815823 134.258,70.185615 h -6.55128 -6.55127 v -6.54568 -6.545679 l -4.56123,-4.56682 -4.56122,-4.566821 4.56122,-4.56682 4.56123,-4.56682 v -6.677971 -6.677971 h 6.67797 6.67797 l 4.56682,-4.561227 4.56682,-4.561227 4.56682,4.561227 4.56682,4.561227 h 6.54568 6.54568 v 6.531754 6.531754 l 4.69016,4.716486 4.69015,4.716485 -4.69015,4.695589 -4.69016,4.695589 v 6.413462 6.413463 h -6.41898 -6.41898 l -4.62454,4.630208 c -2.54349,2.546614 -4.68662,4.630208 -4.7625,4.630208 -0.0759,0 -2.219,-2.083594 -4.7625,-4.630208 z m 6.48229,-3.042708 1.57094,-1.5875 h -3.29073 -3.29072 l 1.57093,1.5875 c 0.86402,0.873125 1.63792,1.5875 1.71979,1.5875 0.0819,0 0.85578,-0.714375 1.71979,-1.5875 z m -17.4625,-7.9375 c -1.15733,-1.164167 -2.19634,-2.116667 -2.30889,-2.116667 -0.24954,0 -0.27607,3.809137 -0.0283,4.056945 0.097,0.09701 1.13601,0.176388 2.30889,0.176388 h 2.13251 z m 11.1125,0.529167 -1.57093,-1.5875 h -2.0588 c -1.13235,0 -2.05881,0.08555 -2.05881,0.190117 0,0.104565 0.62101,0.81894 1.38003,1.5875 l 1.38002,1.397382 h 2.24972 2.24971 z m 13.55158,0.207475 c 0.76856,-0.759013 1.39738,-1.473388 1.39738,-1.5875 0,-0.114111 -0.92646,-0.207475 -2.0588,-0.207475 h -2.0588 l -1.57094,1.5875 -1.57093,1.587499 h 2.23235 2.23236 z m 9.27987,-0.802788 c 0.0425,-1.127786 -0.0198,-2.050521 -0.1385,-2.050521 -0.11868,0 -1.16548,0.956971 -2.32624,2.126601 l -2.11045,2.126601 2.24895,-0.07608 2.24896,-0.07608 z m -16.01919,-3.042708 2.06146,-2.050521 3.23606,-0.132292 3.23606,-0.132291 0.0739,-3.188886 0.0739,-3.188886 2.10928,-2.096912 2.10928,-2.096912 -2.1092,-2.122535 -2.10919,-2.122535 -0.0739,-3.175 -0.0739,-3.175 -3.175,-0.07395 -3.175,-0.07395 -2.18282,-2.169164 -2.18281,-2.169163 -2.18281,2.169163 -2.18281,2.169164 -3.175,0.07395 -3.175,0.07395 -0.0739,3.175 -0.0739,3.175 -2.1092,2.122535 -2.1092,2.122535 2.10928,2.096912 2.10928,2.096912 0.0739,3.188886 0.0739,3.188886 3.18889,0.07387 3.18889,0.07387 2.09657,2.108942 c 1.15311,1.159918 2.15626,2.108943 2.22922,2.108943 0.073,0 1.0603,-0.922735 2.1941,-2.050521 z m -18.63187,-8.182172 c -0.76531,-0.774936 -1.48484,-1.408974 -1.59895,-1.408974 -0.11411,0 -0.20748,0.901808 -0.20748,2.004017 v 2.004017 l 1.52136,1.596411 1.52135,1.596412 0.0776,-2.191455 0.0776,-2.191454 z m 34.70607,0.649829 c 0,-1.132341 -0.0856,-2.058803 -0.19011,-2.058803 -0.10457,0 -0.81894,0.621011 -1.5875,1.380025 l -1.39739,1.380024 v 2.249714 2.249714 l 1.5875,-1.570935 1.5875,-1.570935 z M 121.15545,47.77046 v -3.100571 l -1.58781,1.571237 -1.5878,1.571237 1.51338,1.529334 c 0.83235,0.841134 1.54687,1.529335 1.5878,1.529335 0.0409,0 0.0744,-1.395257 0.0744,-3.100572 z m 46.62545,1.587198 1.52933,-1.513373 -1.51338,-1.529335 c -0.83236,-0.841134 -1.6064,-1.529334 -1.7201,-1.529334 -0.11369,0 -0.20672,1.369218 -0.20672,3.042708 0,1.673489 0.0858,3.042708 0.19077,3.042708 0.10492,0 0.87896,-0.681018 1.7201,-1.513374 z m -40.6145,-6.21665 1.39738,-1.380024 V 39.51127 37.261556 l -1.5875,1.570935 -1.5875,1.570935 v 2.058803 c 0,1.132342 0.0855,2.058803 0.19012,2.058803 0.10457,0 0.81894,-0.621011 1.5875,-1.380024 z m 34.73488,-0.630692 V 40.4996 l -1.5825,-1.627305 -1.5825,-1.627304 -0.005,2.240638 -0.005,2.240638 1.38003,1.397383 c 0.75901,0.76856 1.47339,1.397382 1.5875,1.397382 0.11411,0 0.20747,-0.904822 0.20747,-2.010716 z M 129.8867,29.89831 c 0,-0.118439 -0.98227,-0.180764 -2.18281,-0.138499 l -2.18282,0.07685 -0.0791,1.825832 c -0.12525,2.889507 -0.0398,2.909418 2.33875,0.544842 1.15831,-1.151522 2.10602,-2.190582 2.10602,-2.309022 z m 31.96085,1.897085 -0.0786,-1.958737 -2.18282,-0.07685 c -1.20054,-0.04227 -2.18281,0.01463 -2.18281,0.126439 0,0.414345 4.08973,4.300886 4.30218,4.088436 0.12131,-0.121305 0.18521,-1.101986 0.142,-2.179291 z m -22.83273,-0.503529 1.57094,-1.5875 h -2.23236 -2.23235 l -1.39738,1.380024 c -0.76856,0.759014 -1.39739,1.473389 -1.39739,1.5875 0,0.114112 0.92646,0.207476 2.05881,0.207476 h 2.0588 z m 14.94896,1.397382 c 0,-0.104564 -0.62101,-0.818939 -1.38002,-1.5875 l -1.38003,-1.397382 h -2.24971 -2.24971 l 1.57093,1.5875 1.57094,1.5875 h 2.0588 c 1.13234,0 2.0588,-0.08555 2.0588,-0.190118 z m -7.40833,-7.425691 c 0,-0.114112 -0.65484,-0.854185 -1.45521,-1.644607 l -1.45521,-1.437132 -1.45521,1.437132 c -0.80036,0.790422 -1.4552,1.530495 -1.4552,1.644607 0,0.114112 1.30968,0.207476 2.91041,0.207476 1.60073,0 2.91042,-0.09336 2.91042,-0.207476 z"
       id="path4" /></g></svg>
