<?xml version="1.0" encoding="UTF-8" standalone="no"?>
<!-- Created with Inkscape (http://www.inkscape.org/) -->

<svg
   width="51.329166mm"
   height="40.583012mm"
   viewBox="0 0 51.329167 40.583011"
   version="1.1"
   id="svg1"
   xml:space="preserve"
   xmlns="http://www.w3.org/2000/svg"
   xmlns:svg="http://www.w3.org/2000/svg"><defs
     id="defs1" /><path
     id="path7"
     style="fill:#000000"
     d="M 11.527462,6.2142762e-4 C 11.131688,-0.01091857 10.875151,0.13720043 10.482564,0.52978843 9.2470958,1.7652534 7.4083328,8.9991264 7.4083328,12.624657 c 0,0.990888 -0.226782,2.053232 -0.67231,3.149678 -0.943578,2.322176 -1.94647,6.188165 -2.141988,8.256861 l -0.165365,1.750281 -1.751314,0.148828 c -2.36896596,0.201048 -2.72397996,0.364926 -2.62567996,1.212846 l 0.08062,0.694014 2.33732496,-0.09715 c 2.293256,-0.09492 2.335859,-0.08511 2.248959,0.495061 -0.07411,0.494928 -0.407145,0.671753 -2.042253,1.085721 C 0.50919084,29.869467 4.8423439e-6,30.173705 4.8423439e-6,30.920183 c 0,0.780518 0.5356009976561,0.822597 2.7522869576561,0.214457 1.125986,-0.30891 2.217653,-0.496312 2.425691,-0.416512 0.45416,0.17429 0.508671,0.955497 0.06666,0.955497 -0.17127,0 -1.302374,0.47933 -2.513542,1.065568 -1.88929596,0.914468 -2.20193296,1.159932 -2.20193296,1.72806 0,0.36421 0.154709,0.721767 0.343649,0.794267 0.18893996,0.0725 1.36711696,-0.34792 2.61844496,-0.93431 1.251326,-0.586398 2.495607,-1.065524 2.765205,-1.064534 0.2696,10e-4 0.753055,0.387877 1.074353,0.859895 1.502458,2.207246 4.7314012,4.573616 7.3535572,5.389336 0.727598,0.226338 2.275425,0.574289 3.439583,0.773079 1.491408,0.25464 3.953363,0.33762 8.334375,0.28112 6.481168,-0.0836 8.655721,-0.374775 11.316105,-1.515153 2.343376,-1.004488 5.129637,-3.231144 6.200655,-4.95577 0.480099,-0.773088 0.65109,-0.864967 1.348238,-0.725537 0.43919,0.08784 1.663123,0.575445 2.719731,1.083655 1.961416,0.943408 2.756938,0.978347 2.756938,0.121439 0,-0.672168 -1.049354,-1.426025 -3.19102,-2.292883 -1.279419,-0.517862 -1.830965,-0.879756 -1.832965,-1.203546 -0.0043,-0.60536 0.509279,-0.587491 2.826184,0.09922 2.123766,0.629457 2.807453,0.537642 2.679423,-0.360186 -0.10319,-0.723658 -1.069998,-1.217989 -3.158464,-1.614889 -1.387337,-0.263648 -1.556494,-0.365488 -1.556494,-0.934826 0,-0.6318 0.02225,-0.637069 2.050521,-0.504879 2.357255,0.15363 2.711979,0.07831 2.711979,-0.576709 0,-0.764498 -0.583396,-1.045549 -2.550232,-1.228349 l -1.849499,-0.172082 -0.295589,-2.34456 C 46.454516,22.020283 45.903507,19.870094 45.235998,17.984536 44.45875,15.788952 44.067587,14.171418 43.907397,12.491332 43.585308,9.1132134 43.161497,6.7444384 42.417049,4.1605744 41.63018,1.4295114 40.966721,0.29195343 40.059053,0.11844443 38.858416,-0.11107357 36.470863,1.3486384 33.633089,4.0468864 l -2.632914,2.503206 -1.278992,-0.293005 c -0.754258,-0.172898 -3.029606,-0.256929 -5.547982,-0.204639 l -4.269507,0.08888 -2.358512,-2.273247 C 15.088008,1.4998744 13.426478,0.36358443 11.97963,0.06211243 c -0.172997,-0.03605 -0.320245,-0.05765 -0.452168,-0.0615000024 z M 16.344222,15.303046 c 1.070475,-0.03012 2.234545,0.331443 3.38894,1.407666 0.439107,0.799535 1.612595,1.89663 1.397848,5.0276 -1.159749,1.026374 -2.359441,1.143582 -3.610633,1.300696 -1.829331,-0.157541 -3.563924,-0.809519 -4.581632,-2.212785 -1.363678,-2.276127 -0.457564,-3.308505 -0.03876,-4.154268 0.846403,-0.64417 2.067908,-1.330179 3.444234,-1.368909 z m 18.445386,0 c 1.470244,-0.03722 2.781283,0.688951 3.674711,1.368909 0.418806,0.845764 1.324921,1.878138 -0.03876,4.154268 -1.017709,1.403267 -2.752299,2.055244 -4.581632,2.212785 -1.251193,-0.157114 -2.450883,-0.274321 -3.610633,-1.300696 -0.214748,-3.130974 0.958741,-4.228065 1.397848,-5.0276 1.07194,-0.99935 2.152507,-1.382199 3.158464,-1.407666 z" /></svg>
