<?xml version="1.0" encoding="UTF-8" standalone="no"?>
<!-- Created with Inkscape (http://www.inkscape.org/) -->

<svg
   width="51.329117mm"
   height="40.582973mm"
   viewBox="0 0 51.329117 40.582973"
   version="1.1"
   id="svg1"
   xml:space="preserve"
   xmlns="http://www.w3.org/2000/svg"
   xmlns:svg="http://www.w3.org/2000/svg"><defs
     id="defs1" /><g
     id="layer1"
     transform="translate(-208.49163,-89.212278)"><path
       style="fill:#000000"
       d="m 226.61555,129.49708 c -1.16416,-0.19879 -2.71198,-0.54664 -3.43958,-0.77298 -2.62216,-0.81572 -5.85085,-3.18205 -7.35331,-5.3893 -0.3213,-0.47202 -0.80477,-0.85904 -1.07437,-0.86004 -0.2696,-9.9e-4 -1.514,0.47797 -2.76533,1.06437 -1.25133,0.58639 -2.42973,1.00684 -2.61867,0.93434 -0.18894,-0.0725 -0.34353,-0.42981 -0.34353,-0.79402 0,-0.56813 0.31284,-0.81363 2.20214,-1.7281 1.21117,-0.58624 2.34227,-1.06589 2.51354,-1.06589 0.44201,0 0.38736,-0.78122 -0.0668,-0.95551 -0.20804,-0.0798 -1.29951,0.1076 -2.4255,0.41651 -2.21669,0.60814 -2.75251,0.56647 -2.75251,-0.21405 0,-0.74648 0.50935,-1.05088 2.67649,-1.59955 1.63511,-0.41397 1.96817,-0.59107 2.04228,-1.086 0.0869,-0.58017 0.0443,-0.58953 -2.24896,-0.49461 l -2.33751,0.0968 -0.0805,-0.69381 c -0.0983,-0.84792 0.25648,-1.01183 2.62545,-1.21288 l 1.75124,-0.14862 0.16544,-1.75047 c 0.19552,-2.0687 1.19848,-5.93477 2.14206,-8.25695 0.44553,-1.09645 0.67231,-2.15892 0.67231,-3.14981 0,-3.625539 1.83856,-10.859455 3.07403,-12.094922 0.52345,-0.523451 0.80542,-0.611439 1.49741,-0.467255 1.44685,0.301472 3.10847,1.437734 5.56565,3.805947 l 2.35832,2.272932 4.26948,-0.08864 c 2.51838,-0.05229 4.79394,0.03158 5.5482,0.204478 l 1.27873,0.293119 2.63286,-2.503421 c 2.83778,-2.698254 5.22532,-4.157788 6.42596,-3.92827 0.90767,0.173511 1.57141,1.311226 2.35828,4.042295 0.74445,2.58387 1.16815,4.952312 1.49024,8.330437 0.16019,1.68009 0.55143,3.29756 1.32868,5.49315 0.66751,1.88556 1.21827,4.03592 1.3976,5.45669 l 0.29597,2.34479 1.8493,0.17187 c 1.96684,0.1828 2.55012,0.46373 2.55012,1.22823 0,0.65502 -0.35472,0.73047 -2.71198,0.57684 -2.02828,-0.13219 -2.05052,-0.12671 -2.05052,0.50509 0,0.56934 0.16908,0.67086 1.55642,0.93451 2.08847,0.3969 3.0553,0.89123 3.15849,1.61489 0.12803,0.89783 -0.55566,0.98977 -2.67943,0.36031 -2.31691,-0.68671 -2.83023,-0.70476 -2.82597,-0.0994 0.002,0.32379 0.55343,0.68571 1.83285,1.20357 2.14167,0.86686 3.19097,1.62089 3.19097,2.29306 0,0.85691 -0.79564,0.82183 -2.75706,-0.12158 -1.05661,-0.50821 -2.28044,-0.99588 -2.71963,-1.08372 -0.69715,-0.13943 -0.86831,-0.0473 -1.34841,0.72579 -1.07102,1.72463 -3.85697,3.95142 -6.20035,4.95591 -2.66039,1.14038 -4.83503,1.43155 -11.31621,1.51515 -4.38102,0.0565 -6.84297,-0.0266 -8.33438,-0.28124 z"
       id="path7" /></g></svg>
