<?xml version="1.0" encoding="UTF-8" standalone="no"?>
<!-- Created with Inkscape (http://www.inkscape.org/) -->

<svg
   width="55.813679mm"
   height="53.114044mm"
   viewBox="0 0 55.813679 53.114044"
   version="1.1"
   id="svg1"
   xml:space="preserve"
   xmlns="http://www.w3.org/2000/svg"
   xmlns:svg="http://www.w3.org/2000/svg"><defs
     id="defs1" /><g
     id="layer1"
     transform="translate(-47.058965,-15.49816)"><path
       style="fill:#000000"
       d="m 85.276002,68.569956 c -2.685719,-0.162512 -5.096914,-0.646431 -7.784369,-1.562299 l -2.757285,-0.939666 -1.740632,0.671581 c -3.726138,1.43764 -4.861615,1.622715 -9.942715,1.620596 -4.131961,-0.0017 -5.04274,-0.08082 -6.879167,-0.597443 -2.795849,-0.786524 -5.157741,-1.76557 -7.342188,-3.043469 -2.024582,-1.184378 -1.964724,-0.9983 -1.510493,-4.695572 0.915191,-7.449306 4.517768,-14.071641 10.151637,-18.660958 1.429134,-1.164165 1.479169,-1.248596 1.479169,-2.496006 0,-1.534729 0.587763,-4.496708 1.365621,-6.881927 2.165041,-6.638867 7.439708,-12.917346 13.243419,-15.763752 l 1.473926,-0.722881 1.549663,0.867403 c 7.987205,4.470733 13.37145,12.790134 14.252046,22.021377 l 0.16903,1.771939 1.83205,1.480228 c 5.184849,4.189166 8.834556,10.815932 9.764866,17.73006 0.52592,3.908655 0.48493,4.025273 -1.92219,5.468552 -4.363132,2.616085 -10.254758,4.043716 -15.402388,3.732237 z M 69.26871,66.152898 c 6.904738,-1.722498 12.60126,-5.987316 16.34908,-12.240077 0.556273,-0.928072 1.261144,-2.301071 1.566379,-3.051109 l 0.554973,-1.363705 -0.702403,-0.669053 c -0.816482,-0.777715 -3.704566,-2.556662 -4.150688,-2.556662 -0.167427,0 -0.453925,0.506016 -0.63666,1.12448 -0.487405,1.649605 -1.962552,4.349775 -3.320491,6.077963 -2.398368,3.052294 -6.463065,5.731008 -10.586232,6.976533 -2.495127,0.753726 -8.056006,0.691161 -10.916822,-0.122826 -1.202064,-0.342022 -2.24919,-0.724796 -2.326946,-0.850608 -0.179744,-0.290831 0.273199,-2.070042 1.00433,-3.945125 0.681917,-1.748867 1.814011,-3.690165 3.061561,-5.24992 l 0.918916,-1.148878 -0.439796,-2.026122 c -0.241888,-1.114367 -0.531031,-2.621434 -0.64254,-3.349038 l -0.202744,-1.322917 -1.654609,1.571628 c -4.711714,4.475417 -7.758678,10.701901 -8.169922,16.695272 l -0.145969,2.127316 2.481228,1.23005 c 2.446179,1.212674 5.449703,2.186623 8.037479,2.606305 2.066953,0.335215 7.685323,0.04444 9.921876,-0.513507 z m 21.612238,0.37509 c 3.682367,-0.648058 6.613345,-1.685745 8.908633,-3.154023 l 1.381929,-0.884007 -0.17834,-1.95727 C 100.42474,54.294153 97.779084,48.833297 93.177401,44.400277 89.13904,40.509932 85.007539,38.358526 79.474971,37.264982 76.465505,36.670144 69.085855,37.106536 68.264482,37.927909 c -0.247995,0.247995 -0.229411,5.346856 0.0204,5.596666 0.110575,0.110575 1.06178,-0.02228 2.113791,-0.295228 3.97264,-1.030724 9.443731,-0.404543 13.554413,1.551339 5.307062,2.525125 9.821889,8.232477 10.850759,13.716825 l 0.180969,0.964651 -2.208572,0.736358 c -2.02948,0.676646 -2.543162,0.737241 -6.334748,0.747252 l -4.126176,0.01089 -1.554691,1.279884 c -0.855079,0.703936 -2.06416,1.578452 -2.686845,1.94337 -0.622685,0.364918 -1.132154,0.695751 -1.132154,0.735186 0,0.03943 0.68713,0.322239 1.526957,0.628455 3.521431,1.283978 8.477015,1.677006 12.412364,0.984426 z m -26.446542,-7.197305 1.383405,-0.166175 -1.010588,-1.220587 c -1.17344,-1.417281 -3.058882,-4.539996 -3.492671,-5.784649 -0.16483,-0.472943 -0.397102,-0.859896 -0.51616,-0.859896 -0.643737,0 -2.588951,3.226746 -3.444773,5.714235 l -0.472748,1.374065 1.10069,0.30643 c 2.50411,0.69714 4.395412,0.883718 6.452845,0.636577 z m 26.326922,-0.405984 c 2.429879,-0.45496 2.464748,-0.530068 1.389761,-2.993552 -0.507631,-1.163307 -1.355073,-2.742505 -1.883204,-3.509328 -1.053153,-1.52913 -1.357361,-1.527455 -1.962465,0.01081 -0.502285,1.27688 -2.062932,3.857471 -3.234905,5.34904 l -1.039457,1.322917 0.887055,0.175315 c 1.044668,0.206464 3.708188,0.04455 5.843215,-0.3552 z M 69.826087,58.167423 c 0.753895,-0.297158 1.908883,-0.855673 2.566641,-1.241144 l 1.195923,-0.700858 -1.050487,-0.941668 c -2.32074,-2.08034 -4.624732,-6.00419 -5.524353,-9.408336 -1.427949,-5.403329 -0.290525,-11.870182 2.912235,-16.557584 1.293748,-1.893465 4.369398,-5.005957 4.946703,-5.005957 0.573762,0 2.979183,2.243999 4.326076,4.035763 1.466936,1.951455 2.480311,3.908096 3.275165,6.323743 0.486436,1.478329 0.693831,1.789043 1.29378,1.938301 0.392965,0.09776 1.713229,0.644971 2.933919,1.216015 1.220691,0.571044 2.27366,1.038261 2.339933,1.038261 0.180902,0 -0.186041,-2.564259 -0.624717,-4.365625 C 86.790056,27.817893 82.122441,21.569069 76.249283,18.208789 l -1.434206,-0.82057 -1.25183,0.726993 c -1.880799,1.092263 -3.975039,2.780218 -5.771844,4.652102 -8.329038,8.677059 -9.592186,21.87618 -3.070607,32.08597 1.089578,1.705777 2.967042,3.854425 3.367952,3.854425 0.201642,0 0.983444,-0.243129 1.737339,-0.540286 z m 5.95031,-3.891485 c 1.726832,-1.361026 3.9849,-4.771354 4.877986,-7.367154 0.370838,-1.07786 0.417399,-1.48048 0.179783,-1.554603 -0.176365,-0.05502 -0.796914,-0.252874 -1.378998,-0.439686 -2.121472,-0.680856 -10.079088,-0.251839 -10.587508,0.570802 -0.208056,0.336642 0.818966,2.962543 1.832678,4.685809 0.834071,1.417884 3.685138,4.832436 4.034966,4.832436 0.06486,0 0.533352,-0.327422 1.041093,-0.727604 z M 74.957251,35.292084 c 1.60073,0 3.606213,0.09926 4.456629,0.220582 1.534876,0.218965 1.544945,0.216055 1.373368,-0.396875 -0.568293,-2.030132 -2.381787,-5.063155 -4.112267,-6.877664 l -1.851948,-1.941876 -1.609963,1.715243 c -1.807883,1.926106 -3.244202,4.208729 -3.97286,6.313739 l -0.4896,1.414399 1.648113,-0.223774 c 0.906461,-0.123075 2.957799,-0.223774 4.558528,-0.223774 z"
       id="path4" /></g></svg>
