<?xml version="1.0" encoding="UTF-8" standalone="no"?>
<!-- Created with Inkscape (http://www.inkscape.org/) -->

<svg
   width="55.583317mm"
   height="68.381256mm"
   viewBox="0 0 55.583317 68.381256"
   version="1.1"
   id="svg1"
   xml:space="preserve"
   xmlns="http://www.w3.org/2000/svg"
   xmlns:svg="http://www.w3.org/2000/svg"><defs
     id="defs1" /><g
     id="layer1"
     transform="translate(-194.38991,55.773318)"><path
       style="fill:#000000"
       d="m 221.42472,11.944349 c -0.77568,-1.016963 -1.94434,-3.4691955 -1.94779,-4.0870965 -0.003,-0.45747 -0.62924,-0.619802 -0.87261,-0.226032 -0.17377,0.281168 -2.41205,0.914137 -2.59292,0.73326 -0.075,-0.07498 0.37472,-0.8828 0.99933,-1.795148 1.22081,-1.783176 2.09999,-3.864204 2.48076,-5.872044 0.37579,-1.981502 0.29322,-2.084744 -0.61256,-0.765945 -3.0003,4.368364 -9.58807,5.378383 -12.03644,1.845391 -1.41159,-2.036933 -1.04608,-5.501592 0.73943,-7.008956 1.04723,-0.88409 2.6539,-1.61122 3.57583,-1.618307 0.5948,-0.0046 0.69407,0.07594 0.5429,0.440265 -1.12462,2.710392 -0.57186,4.394904 1.44216,4.394904 1.31915,0 2.23128,-0.881616 2.97857,-2.87893 0.65672,-1.755237 0.68668,-2.216611 0.14397,-2.216611 -0.65644,0 -1.82063,-0.7994 -2.11951,-1.45537 -0.73955,-1.6231245 0.10045,-3.4026825 1.78031,-3.7716415 0.87315,-0.191776 0.92534,-0.571325 0.36728,-2.671078 -0.53899,-2.02804 -1.99238,-4.814109 -3.11119,-5.964013 -0.53292,-0.547723 -1.58136,-1.277499 -2.32987,-1.621725 -1.20939,-0.556174 -1.6249,-0.61432 -3.73142,-0.522188 -2.0851,0.0912 -2.51613,0.194417 -3.58029,0.857393 -0.66539,0.414545 -1.42256,1.153203 -1.6826,1.641462 -0.58747,1.103085 -0.63315,3.639491 -0.0845,4.691563 0.21184,0.406198 0.34528,0.77842 0.29654,0.82716 -0.21423,0.214233 -2.95755,-0.786958 -4.04107,-1.474815 -3.22166,-2.045218 -4.49947,-6.323807 -3.03873,-10.174841 1.77786,-4.687064 8.80091,-7.512196 13.70338,-5.5124 2.31188,0.943049 4.2076,2.298054 6.08668,4.350563 l 1.66533,1.819038 -0.93351,-2.165605 c -2.42542,-5.626632 -2.87643,-8.299972 -1.92738,-11.424524 0.66313,-2.183204 3.55921,-7.910625 6.22663,-12.314051 1.0758,-1.775961 1.95601,-3.352394 1.95601,-3.503184 0,-0.150791 0.17197,-0.274164 0.38216,-0.274164 0.21019,0 0.38217,0.123373 0.38217,0.274164 0,0.15079 0.8802,1.727223 1.95601,3.503184 2.52436,4.167273 5.44519,9.88645 6.18546,12.111536 1.05177,3.161376 0.61385,5.888654 -1.85672,11.563345 -0.50331,1.156051 -0.83347,2.097027 -0.73369,2.091058 0.0998,-0.006 0.63178,-0.594489 1.18222,-1.307823 1.79606,-2.327575 5.10027,-4.395679 8.0252,-5.022962 1.82373,-0.391121 3.25361,-0.353588 4.8768,0.128013 5.73338,1.701089 8.77518,6.149019 7.52973,11.010482 -0.80919,3.158572 -2.72627,5.077079 -6.06366,6.068178 -0.70345,0.208902 -1.32551,0.333308 -1.38236,0.276458 -0.0569,-0.05685 0.0928,-0.494586 0.33264,-0.972747 0.58483,-1.166159 0.53718,-3.241625 -0.10286,-4.479622 -0.30743,-0.594631 -0.98522,-1.274289 -1.7353,-1.74008 -1.16512,-0.723518 -1.37475,-0.764331 -3.92598,-0.764331 -2.27679,0 -2.8551,0.08565 -3.7257,0.551774 -2.21376,1.185278 -4.18,4.126704 -5.07426,7.590926 -0.52113,2.018758 -0.50271,2.430548 0.1087,2.430548 0.27538,0 0.90595,0.355826 1.40127,0.790724 0.76565,0.672249 0.90059,0.952977 0.90059,1.8736255 0,1.294124 -0.83537,2.356228 -2.04322,2.597799 -0.72442,0.144883 -0.77182,0.217921 -0.61693,0.950582 0.29988,1.418518 1.18753,3.221125 1.83818,3.732928 0.37813,0.297438 1.02771,0.500202 1.60246,0.500202 1.97073,0 2.52227,-1.740255 1.39289,-4.394904 -0.4464,-1.049284 2.46231,-0.216385 4.11404,1.178042 1.75628,1.482686 2.14378,4.931141 0.78486,6.984612 -2.37522,3.589205 -9.18452,2.521233 -12.15975,-1.907137 l -0.82213,-1.22367 0.16869,1.146497 c 0.20321,1.381137 1.04455,4.138302 1.58992,5.210301 0.21739,0.427328 0.79542,1.326934 1.28451,1.999125 0.48908,0.672191 0.82977,1.281637 0.75708,1.354325 -0.17777,0.177769 -2.26501,-0.391664 -2.67847,-0.73073 -0.42538,-0.34884 -0.62379,-0.106165 -1.1989,1.466342 -0.51828,1.4170955 -1.38068,2.8933715 -1.98155,3.3920495 -0.33412,0.277293 -0.49238,0.198659 -1.03683,-0.515144 z"
       id="path1" /></g></svg>
