<?xml version="1.0" encoding="UTF-8" standalone="no"?>
<!-- Uploaded to: SVG Repo, www.svgrepo.com, Generator: SVG Repo Mixer Tools -->

<svg
   fill="#000000"
   width="49.999996mm"
   height="50.079193mm"
   viewBox="0 0 3.3070864 3.3123247"
   role="img"
   focusable="false"
   aria-hidden="true"
   version="1.1"
   id="svg1"
   xml:space="preserve"
   xmlns="http://www.w3.org/2000/svg"
   xmlns:svg="http://www.w3.org/2000/svg"><defs
     id="defs1" /><path
     d="M 3.2918291,1.2878585 C 3.2685415,1.2226141 3.2219617,1.1659765 3.1951442,1.1015406 3.1486942,0.98987936 3.1054866,0.87653736 3.0684416,0.76144736 c -0.03221,-0.099985 -0.042787,-0.2079912 -0.083066,-0.3040297 -0.057998,-0.1383141 -0.1839821,-0.156526 -0.2855895,-0.0449952 -0.05114,0.056188 -0.085395,0.1279 -0.126638,0.1929512 -0.046837,0.0740087 -0.084877,0.1553924 -0.1412905,0.2210563 -0.089989,0.1047077 -0.1937572,0.0806744 -0.2416369,-0.0485504 -0.012092,-0.0327035 -0.016497,-0.0683169 -0.024124,-0.1026374 -0.030536,-0.1370199 -0.049362,-0.2779566 -0.094,-0.4101898 -0.06985,-0.2070199 -0.222915,-0.30192657 -0.3898769,-0.2519496 -0.1290314,0.0386218 -0.2540191,0.090766 -0.3956336,0.142292 0.016126,0.030989 0.037079,0.065147 0.051934,0.101829 0.010923,0.026995 0.019423,0.057285 0.019314,0.086077 -4.438e-4,0.103703 -2.974e-4,0.2077955 -0.00964,0.3109166 -0.00625,0.069061 -0.00572,0.166295 -0.048036,0.1983831 -0.070108,0.053146 -0.1211575,-0.0375871 -0.1669738,-0.085398 -0.050849,-0.0530157 -0.092092,-0.1151524 -0.13861905,-0.1724392 -0.0309756,-0.0381058 -0.0605079,-0.0783111 -0.0964777,-0.1112715 -0.2002914,-0.183376 -0.41477,-0.1294543 -0.5207194,0.1312287 -0.1143783,0.2814505 -0.1560213,0.59165734 -0.3535309,0.84101724 -0.0674756,0.085202 0.018034,0.1995818 0.1347437,0.1961198 0.056026,-0.00167 0.1121017,-0.018274 0.1675697,-0.015652 0.028057,0.00135 0.077115,0.028436 0.078713,0.047127 0.017619,0.2056295 0.169575,0.2671203 0.3310185,0.3216574 0.1523407,0.051495 0.31010885,0.094584 0.40137205,0.2621455 0.1172575,-0.2463197 0.079593,-0.4893474 0.06783,-0.7307136 0.060924,0.1726603 0.070043,0.3497012 0.035823,0.5250531 -0.020443,0.1047661 -0.044334,0.2251995 -0.1100573,0.3009824 -0.1004889,0.1158985 -0.1126643,0.2293698 -0.09596,0.3694076 0.016855,0.1410622 0.00821,0.2850096 0.015061,0.427496 0.00216,0.044538 0.00461,0.1111762 0.031227,0.1271877 0.040496,0.024273 0.1218504,0.037005 0.1512536,0.012754 0.090087,-0.074338 0.176032,-0.1603773 0.2407577,-0.2571276 0.093852,-0.1403539 0.2149579,-0.217824 0.3803793,-0.2316749 0.042082,-0.00354 0.084219,-0.00655 0.1262949,-0.010115 0.2387512,-0.020163 0.3489889,-0.1075728 0.3827271,-0.341666 0.037521,-0.2602566 0.054116,-0.5235335 0.080576,-0.7854057 0.011968,-0.1186167 0.020832,-0.2378465 0.040111,-0.3553292 0.017823,-0.1084596 0.06078,-0.1612189 0.1310694,-0.1887446 -0.2288859,0.3579823 -0.070905,0.7708876 -0.1855416,1.1450777 0.011509,0.00405 0.023055,0.00809 0.034545,0.012174 0.028854,-0.018522 0.056025,-0.040946 0.087078,-0.054572 0.031694,-0.013936 0.066758,-0.021752 0.1011816,-0.027946 0.1643857,-0.02976 0.1810774,-0.046023 0.1706943,-0.2133863 -0.00488,-0.078084 0.015845,-0.1299663 0.094032,-0.1526805 0.097299,-0.028233 0.1364057,-0.098627 0.122762,-0.193404 C 3.0229543,1.5324551 3.0510907,1.4766892 3.1776388,1.4708652 3.2944253,1.4654867 3.3313315,1.3984993 3.2918294,1.2878729 Z M 1.6299536,0.53084676 c -0.017227,0.066603 -0.1201877,0.038326 -0.1029273,-0.028373 0.00728,-0.028333 0.020444,-0.058223 0.014071,-0.087788 -0.00615,-0.028432 0.00807,-0.057642 0.037276,-0.065666 0.026827,-0.00736 0.059522,0.00883 0.065644,0.037295 0.011021,0.051015 -0.00131,0.095359 -0.014066,0.1445261 z m 0.32319,0.3027988 c -0.011823,0.033575 -0.029694,0.061036 -0.061119,0.079477 -0.025183,0.014738 -0.054884,0.02051 -0.083701,0.016944 l -4.481e-4,5.539e-4 c -1.616e-4,-2.538e-4 -3.152e-4,-5.537e-4 -4.758e-4,-7.92e-4 -0.00601,-7.998e-4 -0.011972,-0.00193 -0.017824,-0.00345 -0.041957,-0.011529 -0.07761,-0.046666 -0.092055,-0.088261 -0.00592,-0.010128 -0.010872,-0.021061 -0.014943,-0.032773 -0.00326,-0.00952 -0.00725,-0.018684 -0.010544,-0.028204 -0.010824,-0.031217 -0.00417,-0.06974 0.011355,-0.098498 0.00595,-0.022026 0.017017,-0.042667 0.033394,-0.059029 0.052604,-0.052596 0.1350673,-0.049365 0.188084,0 0.056822,0.052919 0.073707,0.1416128 0.048278,0.2138767 z m 0.018277,-0.3450118 c -0.020359,0.065501 -0.1234162,0.037524 -0.1029276,-0.028401 0.00477,-0.015483 0.00693,-0.026496 0.00725,-0.040173 1.749e-4,-0.00853 2.921e-4,-0.017171 -7.522e-4,-0.025696 0.00112,0.00889 -0.00624,-0.017084 -0.00114,-0.00568 -0.011872,-0.026578 -0.00795,-0.057157 0.019154,-0.073039 0.023036,-0.013495 0.061155,-0.00738 0.073025,0.019156 0.02146,0.048005 0.020886,0.1038661 0.00535,0.1538104 z"
     id="path1"
     style="display:inline;stroke-width:0.276026" /></svg>
