<?xml version="1.0" encoding="UTF-8" standalone="no"?>
<!-- Created with Inkscape (http://www.inkscape.org/) -->

<svg
   width="56.598637mm"
   height="52.341412mm"
   viewBox="0 0 56.598637 52.341412"
   version="1.1"
   id="svg1"
   xml:space="preserve"
   xmlns="http://www.w3.org/2000/svg"
   xmlns:svg="http://www.w3.org/2000/svg"><defs
     id="defs1" /><g
     id="layer1"
     transform="translate(-102.55014,-20.560316)"><path
       style="fill:#000000"
       d="m 129.81506,72.506602 c -0.19972,-0.243805 -3.26805,-3.061694 -6.81851,-6.261976 -9.89467,-8.918777 -13.6689,-12.868431 -16.54283,-17.311729 -2.77914,-4.296736 -3.87794,-7.777157 -3.9032,-12.363222 -0.0291,-5.284348 1.5729,-9.230026 4.98418,-12.275806 7.1105,-6.34865 17.57843,-4.366685 22.0148,4.168213 l 1.14934,2.211158 0.88343,-1.826377 c 2.37673,-4.913544 7.54583,-8.261476 12.78043,-8.277649 7.40544,-0.02288 13.12277,4.899828 14.49781,12.482828 1.03662,5.716697 -0.73716,11.914253 -5.08612,17.770813 -2.77014,3.730427 -12.23583,13.108366 -20.29674,20.108586 -2.38377,2.070097 -3.02962,2.347857 -3.66259,1.575161 z m 2.5902,-8.10003 1.895,-2.70148 -1.63041,-0.151914 c -3.768,-0.351081 -6.08924,-1.855193 -7.72783,-5.007461 -0.69825,-1.343273 -0.84743,-5.088279 -0.27173,-6.821545 1.12707,-3.393283 5.09514,-5.218487 8.23994,-3.790149 3.14158,1.426874 4.16834,5.778235 1.86215,7.891701 -0.74139,0.679436 -1.17772,0.867909 -2.00927,0.867909 -1.1609,0 -1.28291,-0.2426 -0.66535,-1.322917 0.55669,-0.973826 0.47747,-1.993464 -0.21767,-2.801616 -0.5371,-0.624417 -0.73876,-0.691157 -1.60012,-0.529564 -1.85176,0.347391 -2.58571,2.769927 -1.48994,4.917806 1.50865,2.9572 6.53469,3.242014 8.85063,0.501545 3.37332,-3.991676 1.89051,-10.106231 -3.08358,-12.715555 -0.92781,-0.486712 -1.57349,-0.598089 -3.51765,-0.606772 -2.14106,-0.0096 -2.56115,0.07458 -4.16474,0.834215 -3.22225,1.526399 -5.41088,4.396625 -6.0748,7.966649 -0.40344,2.169379 0.0326,4.563836 1.3104,7.195793 0.81485,1.678421 1.5062,2.524892 4.48397,5.490104 1.93632,1.928151 3.60955,3.501005 3.71829,3.495231 0.10874,-0.0058 1.05046,-1.226165 2.09271,-2.71198 z m 13.40592,-12.074981 c 4.64778,-3.985838 7.85795,-8.686038 8.7882,-12.867343 1.11727,-5.021883 -0.49801,-10.245886 -3.98078,-12.874358 -4.6435,-3.504478 -11.63363,-2.058401 -14.07421,2.911589 -0.65535,1.334563 -0.74246,1.806836 -0.74246,4.025487 0,2.872901 0.45365,4.060612 2.10465,5.510208 1.37966,1.211356 2.42254,1.674381 4.11739,1.828064 3.36224,0.304878 5.79554,-1.715877 5.8097,-4.82473 0.0128,-2.805372 -2.97497,-4.155399 -4.21835,-1.906078 -0.3818,0.690699 -0.36208,0.810384 0.34347,2.084631 0.84509,1.52628 0.7134,1.795509 -0.88082,1.800782 -2.04915,0.0068 -3.43958,-1.711624 -3.43958,-4.25089 0,-1.926706 0.7855,-3.450989 2.29293,-4.449468 4.6485,-3.079039 10.6683,1.220906 10.04589,7.175786 -0.4299,4.113062 -4.22997,8.131393 -8.12611,8.592833 -0.71626,0.08483 -1.30229,0.187568 -1.30229,0.228305 0,0.04074 0.19318,0.827825 0.42929,1.749084 0.42995,1.677555 0.39874,5.556534 -0.0569,7.074201 -0.25115,0.836509 -0.0392,0.703906 2.88999,-1.808103 z m -28.66237,-0.350779 c 0,-1.264453 0.76008,-4.145035 1.44134,-5.462451 0.24737,-0.478355 0.41121,-0.893479 0.3641,-0.922497 -0.0471,-0.02902 -0.68097,-0.202218 -1.40857,-0.384888 -2.99088,-0.75088 -5.40838,-2.724492 -6.65994,-5.437093 -0.63236,-1.370549 -0.74612,-1.959133 -0.74716,-3.865667 -0.002,-2.659432 0.6598,-4.267951 2.34889,-5.71375 3.08402,-2.639808 7.81789,-1.880965 9.58513,1.536504 1.57995,3.055292 -0.19125,6.830492 -3.19928,6.819028 -1.74223,-0.0066 -1.95699,-0.322772 -0.97729,-1.438588 0.98881,-1.126191 1.08324,-2.145865 0.29191,-3.151887 -0.59884,-0.761299 -1.39951,-0.883252 -2.50174,-0.381046 -0.90868,0.414023 -1.44781,1.499891 -1.44781,2.916041 0,1.580973 0.75384,2.843501 2.25658,3.779323 1.11483,0.694258 1.5093,0.791543 3.14703,0.776137 2.2086,-0.02078 3.57761,-0.616114 4.91223,-2.136169 1.33465,-1.520078 1.93415,-3.113818 1.92446,-5.116085 -0.0216,-4.454567 -3.14742,-8.079044 -7.8113,-9.057302 -3.80285,-0.797657 -8.6478,1.686091 -10.43507,5.349501 -2.52667,5.178995 -1.61253,10.60635 2.77069,16.449961 2.07607,2.767772 5.41269,6.524651 5.81507,6.547483 0.21568,0.01224 0.33073,-0.372678 0.33073,-1.106555 z"
       id="path4" /></g></svg>
