<?xml version="1.0" encoding="UTF-8" standalone="no"?>
<!-- Created with Inkscape (http://www.inkscape.org/) -->

<svg
   width="54.50415mm"
   height="54.698261mm"
   viewBox="0 0 54.50415 54.698261"
   version="1.1"
   id="svg1"
   xml:space="preserve"
   xmlns="http://www.w3.org/2000/svg"
   xmlns:svg="http://www.w3.org/2000/svg"><defs
     id="defs1" /><g
     id="layer1"
     transform="translate(-152.05417,3.9307548)"><path
       style="fill:#000000"
       d="m 181.70517,48.260218 c -1.98944,-3.07105 -2.39892,-4.18428 -2.39892,-6.52181 0,-2.25298 -0.47625,-2.42779 -1.43888,-0.52812 -1.37227,2.70805 -3.51153,4.11747 -6.23404,4.1072 -1.55535,-0.006 -2.00814,-0.15039 -4.7355,-1.51156 -3.24087,-1.61746 -4.30898,-1.81885 -5.60043,-1.05597 -0.41816,0.24701 -0.82259,0.38681 -0.89873,0.31067 -0.18143,-0.18144 1.47178,-5.078649 2.1883,-6.482249 0.5239,-1.02629 2.76371,-3.273369 3.26278,-3.273369 0.12503,0 0.22733,-0.177295 0.22733,-0.393989 0,-0.331698 -0.36929,-0.367777 -2.33571,-0.228196 -2.79508,0.1984 -4.52205,-0.26066 -5.84446,-1.553566 -1.25173,-1.223793 -1.81021,-2.503511 -2.38375,-5.462223 -0.28077,-1.448365 -0.69697,-2.994013 -0.92489,-3.434773 -0.47369,-0.916002 -1.37575,-1.627253 -2.06381,-1.627253 -0.25866,0 -0.47029,-0.15379 -0.47029,-0.341756 0,-0.201252 1.38181,-0.812557 3.36105,-1.486913 3.0425,-1.03662 3.52523,-1.130419 5.09323,-0.989661 0.9527,0.08552 2.0596,0.232732 2.45978,0.327132 1.09141,0.257455 0.91619,-0.3188 -0.4672,-1.536509 -1.91074,-1.681901 -2.62032,-3.128437 -2.62497,-5.351258 -0.005,-2.2741451 0.38357,-3.0761761 3.00647,-6.2093101 2.19986,-2.627808 2.49659,-3.544719 1.74106,-5.37995598 -0.31348,-0.76144902 0.25801,-0.551354 2.83307,1.041512 3.30768,2.04604598 4.25479,2.96256598 5.12454,4.95901998 0.89638,2.057582 1.43338,2.071988 1.43338,0.03845 0,-2.932394 1.33208,-5.40931898 3.53132,-6.56630198 0.94715,-0.49827402 1.6652,-0.59768902 5.19993,-0.71992602 4.44281,-0.153639 4.84131,-0.272731 5.66599,-1.693282 0.44307,-0.763213 0.49739,-0.787332 0.67703,-0.300622 0.10742,0.291042 0.3484,1.838855 0.53551,3.43958402 0.39099,3.34494698 0.15725,5.05562598 -0.94859,6.94259598 -0.56301,0.960717 -0.60264,1.157475 -0.25964,1.289098 0.2339,0.08976 0.83211,-0.183117 1.41702,-0.646374 2.41298,-1.911115 5.57273,-2.329682 7.78452,-1.031206 0.68519,0.402253 1.60288,1.175729 2.03933,1.718836 0.43645,0.543107 1.31171,1.642311 1.94504,2.4426761 1.58722,2.00585 2.70267,2.726621 3.9641,2.561489 0.54571,-0.07144 0.99219,-0.04808 0.99219,0.0519 0,0.09998 -1.05154,1.25865 -2.33676,2.574819 -2.44751,2.506454 -4.4846,3.804162 -5.98342,3.811678 -0.94451,0.0047 -1.606,0.354628 -1.3755,0.727575 0.0889,0.143892 0.71549,0.401072 1.39237,0.571511 1.6919,0.426024 2.98852,1.134186 3.99042,2.179407 1.81862,1.897239 2.1117,4.306431 1.00889,8.293274 -0.362,1.308665 -0.65965,2.712725 -0.66146,3.120134 -0.004,0.905723 0.62741,2.183669 1.25348,2.53692 1.06176,0.599082 -0.11127,0.755321 -3.10885,0.414076 -4.04184,-0.460123 -5.241,-0.8977 -7.04778,-2.571759 -1.12303,-1.040534 -1.37136,-0.53312 -0.59283,1.21131 0.46002,1.030748 0.61476,1.867393 0.62093,3.357252 0.0141,3.41111 -1.25534,4.90095 -5.9449,6.97692 -2.70102,1.19567 -3.65809,2.03442 -3.87593,3.39675 -0.0883,0.55188 -0.25206,1.00341 -0.36402,1.00341 -0.11196,0 -0.93447,-1.12828 -1.8278,-2.50729 z m 1.56983,0.5073 c 0,-0.22687 -0.121,-0.3377 -0.2689,-0.2463 -0.14789,0.0914 -0.2004,0.27703 -0.11668,0.41249 0.22682,0.36699 0.38558,0.29856 0.38558,-0.16619 z m -0.29431,-2.05471 c 0.18859,-0.5566 0.30219,-1.05249 0.25245,-1.10197 -0.0497,-0.0495 -0.43372,0.20549 -0.8533,0.56662 -0.69697,0.59987 -0.73286,0.71267 -0.41545,1.30575 0.39795,0.74359 0.53975,0.63609 1.0163,-0.7704 z m 1.28114,0.96191 c 0.0516,-0.15488 -0.0898,-0.35206 -0.31419,-0.43818 -0.28599,-0.10974 -0.40806,0.006 -0.40806,0.38633 0,0.54434 0.54505,0.58347 0.72225,0.0519 z m 0.64209,-1.94348 c -0.51418,-1.22448 -0.71475,-1.30035 -0.95085,-0.35967 -0.22887,0.91191 0.51361,2.13007 1.0347,1.6976 0.29443,-0.24435 0.28023,-0.47092 -0.0838,-1.33793 z m -2.25813,-0.46511 c 1.17458,-1.05647 2.39962,-2.73506 1.68754,-2.31234 -0.21828,0.12958 -0.764,0.51094 -1.21272,0.84747 -0.44871,0.33652 -1.19285,0.68726 -1.65364,0.77942 -0.89892,0.17978 -0.9928,0.37576 -0.56391,1.17714 0.36464,0.68134 0.47231,0.65096 1.74273,-0.49169 z m 3.67192,-0.57057 c 0,-1.66281 -0.46385,-2.6134 -0.91725,-1.87978 -0.14889,0.24091 -0.0969,0.57367 0.14331,0.91656 0.20738,0.29608 0.37706,0.98809 0.37706,1.53779 0,0.54971 0.0893,0.99936 0.19844,0.99922 0.10914,-1.3e-4 0.19844,-0.70834 0.19844,-1.57379 z m 0.92604,0.53132 c 0,-0.28246 -0.11906,-0.58714 -0.26458,-0.67708 -0.15006,-0.0927 -0.26459,0.12955 -0.26459,0.51356 0,0.37239 0.11907,0.67707 0.26459,0.67707 0.14552,0 0.26458,-0.2311 0.26458,-0.51355 z m 1.18776,-0.78973 c -0.19841,-0.79876 -1.4949,-2.92889 -1.78307,-2.92958 -0.3934,-9.4e-4 -0.16896,0.94662 0.46992,1.9839 0.35851,0.58208 0.65246,1.3408 0.6532,1.68604 0.001,0.53939 0.0596,0.57938 0.41524,0.28422 0.27931,-0.2318 0.35888,-0.56495 0.24471,-1.02458 z m -3.15324,0.0938 c -0.0973,-0.38775 -0.23647,-0.64547 -0.30923,-0.57271 -0.0728,0.0728 -0.0527,0.44954 0.0447,0.83729 0.0973,0.38775 0.23648,0.64547 0.30924,0.57271 0.0728,-0.0728 0.0527,-0.44954 -0.0447,-0.83729 z m 4.51941,0.009 c 0.14945,-0.38944 -0.56845,-1.44535 -0.98267,-1.44535 -0.10935,0 -0.0709,0.41672 0.0854,0.92604 0.30285,0.9868 0.64246,1.18335 0.89727,0.51931 z m -20.13033,-1.02755 c 0.0884,-0.35229 0.11911,-0.85679 0.0682,-1.12111 -0.0717,-0.37229 -0.22189,-0.26136 -0.66656,0.4923 -0.39963,0.67733 -0.47911,1.01156 -0.26161,1.10022 0.57975,0.23632 0.69869,0.17111 0.85996,-0.47141 z m 2.57126,-1.48948 c 0.22577,-0.57474 0.35906,-1.04499 0.29619,-1.04499 -0.154,0 -1.9598,2.83439 -1.9598,3.07612 0,0.48484 1.29765,-1.09947 1.66361,-2.03113 z m 2.14613,1.5347 c 0.49155,-0.76533 0.82431,-2.99349 0.47892,-3.20695 -0.40913,-0.25286 -0.76236,0.39029 -0.93233,1.69756 -0.086,0.66142 -0.23424,1.40556 -0.32944,1.65364 -0.2539,0.66165 0.33493,0.55315 0.78285,-0.14425 z m 7.69523,0.35316 c 0.43569,-0.17017 0.35633,-0.23656 -0.46753,-0.39111 -1.04072,-0.19525 -1.62635,-0.0297 -1.36885,0.38696 0.17981,0.29093 1.09683,0.293 1.83638,0.004 z m -13.56357,-1.14691 c 0.21093,-0.32742 0.5101,-0.9525 0.66482,-1.38907 0.15473,-0.43656 0.36577,-1.0021 0.46898,-1.25677 0.13498,-0.33302 0.0613,-0.46302 -0.26229,-0.46302 -0.24747,0 -0.51654,0.25463 -0.59792,0.56583 -0.0814,0.31121 -0.42742,1.09141 -0.76898,1.73379 -0.72736,1.36799 -0.73399,1.40455 -0.25456,1.40455 0.20154,0 0.53902,-0.26789 0.74995,-0.59531 z m 22.14341,-0.65719 c -0.78259,-2.05836 -1.35548,-2.1373 -0.61751,-0.0851 0.28092,0.78122 0.5583,1.20686 0.66936,1.02716 0.10431,-0.16878 0.081,-0.59271 -0.0519,-0.94208 z m -5.65935,-0.3577 c 1.01553,-0.74008 1.90595,-1.40555 1.97871,-1.4788 0.22911,-0.23068 -1.94384,0.22914 -2.87522,0.60842 -1.13223,0.46107 -3.18785,1.75689 -3.20054,2.01756 -0.005,0.10914 0.49891,0.19844 1.12048,0.19844 0.94029,0 1.44033,-0.22606 2.97657,-1.34562 z m -17.55188,0.19651 c 0.28773,-0.53762 0.27608,-0.54283 -0.32358,-0.14467 -0.74157,0.49239 -1.02568,1.10558 -0.40122,0.86595 0.23449,-0.09 0.56065,-0.41456 0.7248,-0.72128 z m 9.63567,-0.76912 c 0.21596,-0.40974 0.2673,-0.72761 0.11751,-0.72761 -0.25841,0 -1.34357,1.88503 -1.32668,2.30457 0.011,0.27394 0.72301,-0.6546 1.20917,-1.57696 z m -5.29466,-0.0251 c 0.22594,-0.2685 0.33262,-0.56616 0.23706,-0.66146 -0.24773,-0.24707 -1.45331,1.22287 -1.44323,1.75969 0.007,0.3866 0.0626,0.37547 0.40189,-0.0809 0.21642,-0.29104 0.57835,-0.74884 0.80428,-1.01733 z m 17.44249,-0.041 c -0.26544,-1.01448 -0.39211,-1.20935 -0.54331,-0.83585 -0.11818,0.29192 -0.0186,0.8616 0.24858,1.42182 0.59877,1.25564 0.71574,1.02309 0.29473,-0.58597 z m -21.04714,-0.90957 c 0.20011,-0.37391 0.1634,-0.53123 -0.1522,-0.65234 -0.55801,-0.21413 -0.89732,0.0292 -0.89732,0.64356 0,0.2781 -0.35719,0.76971 -0.79375,1.09248 -0.43657,0.32276 -0.79375,0.68924 -0.79375,0.81438 0,0.34593 2.33588,-1.3354 2.63702,-1.89808 z m 13.59401,1.41522 c 1.15928,-0.78776 1.10756,-1.03744 -0.16544,-0.79863 -1.11374,0.20894 -1.91891,0.77712 -1.67061,1.17888 0.28626,0.46319 0.73009,0.37127 1.83605,-0.38025 z m -16.38113,-1.10096 c 0.13568,-0.43485 0.0791,-0.59531 -0.21005,-0.59531 -0.91536,0 -1.68651,1.65176 -0.89662,1.92051 0.36816,0.12526 0.82463,-0.42134 1.10667,-1.3252 z m -1.96657,0.83785 c 0,-0.46724 -0.56958,-0.38587 -0.73312,0.10473 -0.0576,0.1728 0.0838,0.31419 0.3142,0.31419 0.23041,0 0.41892,-0.18852 0.41892,-0.41892 z m 24.76671,-0.37423 c -0.0305,-0.85821 -0.15523,-0.95833 -0.61775,-0.49581 -0.22166,0.22166 -0.2189,0.42606 0.0107,0.79375 0.4429,0.70919 0.63937,0.61275 0.60702,-0.29794 z m -12.09174,-0.0667 c 0.30337,-0.39634 0.29259,-0.46302 -0.0749,-0.46302 -0.26389,0 -0.42928,0.22086 -0.42928,0.57327 0,0.31529 0.0337,0.52365 0.0749,0.46302 0.0412,-0.0606 0.23435,-0.3186 0.42927,-0.57327 z m 16.3381,-1.17271 c -0.62489,-1.201335 -1.70766,-2.095303 -2.08309,-1.719874 -0.24373,0.243734 -0.0717,0.569503 0.75974,1.438474 0.59116,0.61786 1.1722,1.36151 1.29119,1.65255 0.21027,0.51428 0.21922,0.51292 0.31815,-0.0482 0.056,-0.31757 -0.0727,-0.91288 -0.28599,-1.32291 z m -21.47244,0.70969 c 0.46481,-0.51361 0.46213,-0.52916 -0.0913,-0.52916 -0.39378,0 -0.57017,0.1637 -0.57017,0.52916 0,0.29104 0.0411,0.52917 0.0913,0.52917 0.0502,0 0.30679,-0.23813 0.57018,-0.52917 z m -7.36,-0.56622 0.74541,-0.30208 -1.03212,-0.23147 c -1.19755,-0.268568 -1.11937,-0.306744 -1.36345,0.66578 -0.17618,0.70195 -0.15082,0.73478 0.35755,0.4627 0.30096,-0.16106 0.88263,-0.42878 1.29261,-0.59493 z m 2.87296,0.54862 c 0.28476,-0.46076 -0.0396,-0.55833 -0.40245,-0.12108 -0.20869,0.25145 -0.22876,0.40327 -0.0533,0.40327 0.15475,0 0.35985,-0.12699 0.45577,-0.28219 z m 16.65787,-0.24487 c 1.16416,-0.12205 2.47385,-0.31607 2.91041,-0.43116 l 0.79375,-0.20924 -0.79375,-0.17872 c -2.50109,-0.563137 -5.95312,-0.004 -5.95312,0.96411 0,0.31031 0.13549,0.38575 0.46302,0.2578 0.25466,-0.0995 1.41552,-0.28074 2.57969,-0.40279 z M 167.4,39.003851 c 0,-0.06715 -0.50602,-0.254621 -1.12448,-0.416599 -0.61846,-0.161977 -1.5672,-0.582486 -2.10831,-0.934463 l -0.98383,-0.639958 -0.29331,0.548065 c -0.61087,1.141426 -0.0879,1.376042 3.38545,1.518823 0.61846,0.02542 1.12448,-0.0087 1.12448,-0.07587 z m 3.43958,0.04417 c 0,-0.332153 -2.88504,-2.162525 -3.88107,-2.462285 -0.68549,-0.206303 -1.53913,-0.566931 -1.89696,-0.801394 -0.59325,-0.388711 -0.57443,-0.32021 0.21349,0.776949 0.88113,1.226957 1.25367,1.44805 3.58017,2.12476 1.3306,0.387033 1.98437,0.506287 1.98437,0.36197 z m 2.64584,-0.388816 c -1.33115,-0.883427 -2.56449,-2.401359 -3.06202,-3.768569 -0.58785,-1.615396 -1.05542,-2.002969 -2.10009,-1.740774 l -0.74609,0.187257 0.81614,0.496324 c 0.44887,0.272979 1.29857,1.188511 1.88821,2.034517 1.7008,2.440295 2.5903,3.27401 3.46116,3.244106 0.26754,-0.0092 0.18058,-0.162252 -0.25731,-0.452861 z m 2.49168,-0.260865 c -0.26378,-0.400182 -0.80586,-1.398839 -1.20462,-2.219236 -0.7897,-1.624706 -1.66976,-2.3997 -3.20529,-2.82264 -1.25708,-0.346243 -1.26332,-0.01487 -0.0175,0.929554 1.21652,0.922217 2.02066,1.726068 3.47177,3.470501 1.23137,1.480269 1.72829,1.814009 0.95565,0.641821 z m 8.63162,0.339309 c 2.50315,-0.007 3.18685,-0.09585 3.79327,-0.492742 1.01384,-0.663546 0.77552,-0.758885 -0.74962,-0.299885 -1.63396,0.491751 -2.69863,0.48924 -4.11279,-0.0097 -1.62991,-0.575065 -2.24494,-0.509618 -2.60336,0.277033 -0.41117,0.902418 -0.38909,1.008866 0.15597,0.752042 0.25466,-0.119991 1.8371,-0.222026 3.51653,-0.226745 z m -4.58722,-0.589058 c 1.04421,-1.565673 2.69904,-2.943948 4.22076,-3.515378 1.53539,-0.576567 2.2529,-0.600757 6.28934,-0.212044 0.62501,0.06019 0.86777,-0.08394 1.25906,-0.747544 0.44501,-0.754713 0.45202,-0.900427 0.0856,-1.777439 -0.22581,-0.54042 -0.39917,-1.75336 -0.39917,-2.792794 0,-2.495343 1.11962,-4.729725 3.11635,-6.219155 1.05873,-0.789747 1.3796,-1.191906 1.37315,-1.720994 -0.012,-0.985246 -0.42152,-1.383379 -2.42956,-2.362033 -2.92641,-1.426239 -4.44119,-3.92129 -4.44119,-7.315252 0,-2.7399611 -0.92169,-3.1439601 -3.8659,-1.6945261 -1.5511,0.7636041 -1.84167,0.8185141 -3.73664,0.7061331 -2.22948,-0.132219 -3.23406,-0.5260431 -5.00969,-1.9639461 -1.28597,-1.041374 -1.6225,-1.08659 -2.56563,-0.344723 -0.50164,0.394591 -0.69714,0.793345 -0.69714,1.421943 0,3.1038461 -2.58564,6.0216421 -6.1348,6.9228851 -0.91872,0.233292 -1.81923,0.544995 -2.00113,0.692673 -0.64949,0.527291 -0.37442,1.811016 0.62512,2.917384 2.28316,2.527189 2.73155,5.796207 1.23334,8.991713 l -0.8362,1.783508 0.65236,0.775291 c 0.619,0.735634 0.75821,0.775291 2.7216,0.775291 2.22547,0 3.49905,0.387347 4.97499,1.513104 0.96991,0.739787 2.29155,2.549122 2.59732,3.555756 0.31516,1.037547 0.66276,1.322917 1.61141,1.322917 0.66293,0 0.99907,-0.176604 1.35666,-0.71277 z m 12.53824,-1.3013 c -0.34613,-0.853202 -0.52954,-1.093721 -0.53906,-0.706886 -0.0161,0.65406 0.85008,2.64097 0.9806,2.249398 0.0457,-0.137109 -0.15299,-0.83124 -0.44154,-1.542512 z m -22.40613,-0.228019 c -1.2182,-1.742654 -2.23401,-2.660268 -3.12779,-2.825445 -0.27333,-0.05051 -0.52669,0.02722 -0.56301,0.172742 -0.0741,0.296728 4.24967,4.365625 4.63906,4.365625 0.13704,0 -0.28968,-0.770815 -0.94826,-1.712922 z m 3.94208,0.889545 c -0.48744,-0.839667 -2.37612,-2.616206 -2.78136,-2.616206 -0.45406,0 0.60378,1.563553 1.68261,2.486985 1.36708,1.170173 1.72765,1.212578 1.09875,0.129221 z m 1.93457,-0.410003 c -0.22385,-0.413047 -0.41176,-0.6673 -0.41758,-0.565007 -0.0179,0.314503 0.59763,1.54294 0.71455,1.426021 0.0605,-0.06051 -0.0731,-0.447966 -0.29697,-0.861014 z m 15.78699,0.435507 c -0.16661,-0.637132 -0.60475,-0.971328 -0.60475,-0.461284 0,0.294965 0.48509,0.994574 0.6896,0.994574 0.03,0 -0.008,-0.239981 -0.0849,-0.53329 z m -3.41834,-0.516041 c 0.52819,-0.528187 -3.39666,-0.453952 -4.03683,0.07635 -0.30975,0.256589 -0.24046,0.336505 0.39291,0.453214 0.95494,0.175965 3.27566,-0.161303 3.64392,-0.529567 z m -23.68658,-0.273586 c -0.54998,-0.743895 -1.0165,-1.024934 -1.0165,-0.612365 0,0.268419 1.11411,1.406115 1.37696,1.406115 0.12451,0 -0.0377,-0.357188 -0.36046,-0.79375 z m 19.46462,-0.135156 c 0.71435,-0.216706 2.29193,-0.394011 3.50573,-0.394011 1.29488,0 2.2069,-0.109341 2.2069,-0.264583 0,-0.145521 -0.29027,-0.264583 -0.64504,-0.264583 -0.35477,0 -1.41884,-0.179457 -2.36459,-0.398792 -1.38174,-0.320446 -1.86577,-0.335975 -2.46382,-0.07905 -1.18801,0.51039 -2.21864,1.291088 -2.05467,1.556403 0.19633,0.317664 0.27961,0.310536 1.81549,-0.155388 z m 16.6827,-0.592448 c -1.22088,-1.898599 -1.18048,-1.880741 -1.18048,-0.521893 0,1.222193 0.018,1.249497 0.82418,1.249497 h 0.82418 z m -1.67009,-1.223468 c -0.051,-0.854809 -0.2547,-1.926371 -0.45266,-2.38125 l -0.35994,-0.827053 -0.0103,1.265269 c -0.006,0.695898 -0.19168,1.69922 -0.41329,2.229604 -0.44509,1.065261 -0.2063,1.463932 0.7998,1.335288 0.47373,-0.06057 0.51946,-0.2305 0.43644,-1.621858 z m -32.18643,0.628155 c -0.41826,-0.436562 -1.03585,-0.79375 -1.37242,-0.79375 -1.12838,0 -0.52362,0.893462 0.89248,1.318533 1.2209,0.366481 1.27605,0.306181 0.47994,-0.524783 z m 30.43575,-0.545944 c 0.22099,-0.427335 0.30206,-0.776973 0.18017,-0.776973 -0.31736,0 -1.38159,1.497188 -1.19608,1.682692 0.24135,0.241353 0.5779,-0.05869 1.01591,-0.905719 z m 4.73175,0.451522 c -0.15739,-0.410145 -0.90396,-0.629399 -0.90396,-0.265475 0,0.194626 0.88832,0.882685 0.998,0.773009 0.04,-0.04003 -0.002,-0.268425 -0.094,-0.507534 z m -13.00362,-0.343711 c -0.17913,-0.07248 -0.53631,-0.07689 -0.79375,-0.0098 -0.25743,0.06708 -0.11086,0.126382 0.3257,0.131774 0.43656,0.0054 0.64719,-0.0495 0.46805,-0.12197 z m 7.64014,-0.933264 c 0.76764,-0.969229 0.89911,-1.368644 1.05762,-3.213144 0.21768,-2.532958 0.0355,-3.27414 -0.47291,-1.92391 -0.19719,0.52371 -0.5319,1.398685 -0.74379,1.944388 -0.21189,0.545704 -0.39049,1.506031 -0.39687,2.134061 -0.006,0.628031 -0.13487,1.372171 -0.28551,1.653646 -0.44751,0.836172 -0.0942,0.586341 0.84146,-0.595041 z m -1.40743,0.37921 c 0.3258,-0.636276 0.58563,-2.447396 0.35111,-2.447396 -0.34598,0 -1.09875,1.523452 -1.09875,2.223635 0,0.786794 0.3983,0.906001 0.74764,0.223761 z m 6.24218,0.03784 c 0.5604,-0.215045 0.53264,-0.831136 -0.0445,-0.987605 -2.07478,-0.562493 -2.45888,-0.373811 -1.22109,0.599834 0.79349,0.624159 0.71347,0.599642 1.26559,0.387771 z M 196.2144,29.95 c 1.32387,-2.073329 0.87523,-2.16477 -0.83303,-0.169788 -1.48619,1.735638 -2.03549,3.026492 -1.68099,3.950309 0.11979,0.312158 0.36599,0.04181 0.90177,-0.990196 0.40535,-0.780773 1.13086,-2.036419 1.61225,-2.790325 z m 4.39081,2.561362 c -0.0899,-0.14552 -0.36486,-0.26276 -0.61093,-0.260531 -0.38557,0.0035 -0.39255,0.0395 -0.0505,0.260531 0.51815,0.334856 0.86841,0.334856 0.66146,0 z m 0.77168,-0.647909 c -0.56994,-0.501871 -1.37151,-1.034187 -1.78126,-1.182925 -0.68358,-0.248137 -0.73811,-0.221988 -0.66146,0.31718 0.063,0.443001 0.28834,0.607508 0.91573,0.668456 0.4577,0.04446 1.0417,0.312354 1.29778,0.595312 0.25607,0.282958 0.64556,0.51447 0.86553,0.51447 0.23388,0 -0.0303,-0.378904 -0.63632,-0.912493 z m -7.94622,-0.245254 c 0.20525,-0.491239 0.97515,-1.55787 1.71088,-2.37029 1.67094,-1.845115 2.16375,-2.786071 2.12928,-4.065595 -0.0267,-0.989322 -0.0302,-0.99269 -0.22504,-0.211577 -0.41416,1.660595 -1.03542,2.682759 -2.2885,3.765271 -2.6783,2.313719 -2.49949,2.071498 -2.18825,2.964314 0.1555,0.446072 0.32901,0.81104 0.38558,0.81104 0.0566,0 0.2708,-0.401923 0.47605,-0.893163 z m -29.33796,0.375618 0.79375,-0.190354 -0.7015,-0.197347 c -0.46161,-0.129864 -0.95922,-0.05769 -1.4552,0.211065 l -0.75372,0.408411 0.66146,-0.02071 c 0.3638,-0.01139 1.01865,-0.106371 1.45521,-0.211065 z m 37.96771,-0.67308 c -0.18116,-0.218281 -0.44844,-0.396875 -0.59396,-0.396875 -0.1476,0 -0.11895,0.175488 0.0648,0.396875 0.18116,0.218282 0.44844,0.396875 0.59396,0.396875 0.14759,0 0.11894,-0.175487 -0.0648,-0.396875 z m -40.04645,-0.595312 c 0.63346,-0.400183 1.15196,-0.820638 1.15222,-0.934346 0.001,-0.564593 -0.91589,-0.423368 -2.02603,0.311963 -0.68157,0.451451 -1.42716,0.829189 -1.65687,0.839417 -0.30561,0.01361 -0.27569,0.0796 0.1115,0.245987 0.85983,0.369478 1.20639,0.303148 2.41918,-0.463021 z m 1.80286,0.21672 c 0.27032,-0.437391 -0.29242,-0.542007 -0.80962,-0.150514 -0.4855,0.367493 -0.48294,0.380262 0.0777,0.3884 0.31883,0.0046 0.64819,-0.102421 0.73192,-0.237886 z m 38.601,-0.832366 c -0.46292,-0.458734 -3.36947,-1.112747 -3.65892,-0.823304 -0.32529,0.32529 0.5411,0.843984 1.41567,0.847538 0.52789,0.0021 1.25745,0.161552 1.62125,0.354238 0.87012,0.460851 1.24115,0.235085 0.622,-0.378472 z m -35.84912,-3.61024 c 0.31169,-0.610965 0.56671,-1.272573 0.56671,-1.470239 0,-0.718681 -0.82096,-3.101272 -1.06859,-3.101272 -0.13988,0 -0.25574,0.863204 -0.25747,1.91823 -0.002,1.055026 -0.17891,2.573073 -0.39373,3.373437 -0.21483,0.800365 -0.38331,1.812396 -0.37441,2.248959 0.0142,0.697762 0.0733,0.633396 0.48848,-0.53226 0.25976,-0.729305 0.72731,-1.82589 1.03901,-2.436855 z m 26.73343,1.712344 c 0.40952,-0.909505 1.18571,-2.17962 1.72487,-2.822478 1.06807,-1.273519 2.21895,-3.29935 1.29002,-2.270751 -0.26284,0.291041 -1.21392,1.159692 -2.11351,1.930334 -1.46907,1.258495 -1.66604,1.547725 -1.93441,2.840464 -0.26717,1.286956 -0.21113,1.976077 0.1607,1.976077 0.0703,0 0.4628,-0.744141 0.87233,-1.653646 z m -26.45349,-0.595415 c 0,-0.14552 -0.22814,0.152136 -0.50698,0.661459 -0.27885,0.509323 -0.50699,1.045104 -0.50699,1.190625 0,0.145521 0.22814,-0.152136 0.50699,-0.661458 0.27884,-0.509323 0.50698,-1.045105 0.50698,-1.190626 z m 36.2701,1.483516 c 0,-0.623079 -0.60493,-0.876114 -1.38877,-0.580902 -0.56969,0.21456 -0.55531,0.242039 0.33044,0.631458 0.50932,0.223926 0.9558,0.41685 0.99218,0.42872 0.0364,0.01187 0.0661,-0.203803 0.0661,-0.479276 z m -42.66426,-0.402936 c 0.34473,-0.344727 -0.24145,-0.472725 -1.38176,-0.301724 -0.74188,0.111251 -1.14172,0.28835 -1.03626,0.458986 0.17,0.275057 2.11201,0.148754 2.41802,-0.157262 z m 35.38752,-2.36925 c 0.36131,-0.725059 0.58942,-1.385806 0.5069,-1.468326 -0.33258,-0.332581 -2.21019,2.306069 -2.62077,3.683038 -0.1969,0.66033 -0.19582,0.660129 0.62985,-0.117482 0.4549,-0.428418 1.12271,-1.372171 1.48402,-2.09723 z m -32.10264,0.604898 c -0.0908,-1.918123 0.1673,-2.952324 1.06099,-4.251863 0.63091,-0.917423 0.613,-1.876136 -0.0462,-2.472698 -0.52093,-0.471429 -0.52917,-0.46213 -0.52917,0.596878 0,0.591672 -0.23659,1.830516 -0.52575,2.752987 -0.57433,1.832186 -0.68906,3.933168 -0.25869,4.737321 0.15064,0.281475 0.29947,0.512041 0.33073,0.512369 0.0313,3.27e-4 0.0169,-0.84342 -0.0319,-1.874994 z m 36.44691,1.529735 c -0.0606,-0.04404 -0.43766,-0.284913 -0.83784,-0.535266 -0.70398,-0.440407 -0.72761,-0.437807 -0.72761,0.08008 0,0.424612 0.17321,0.535266 0.83785,0.535266 0.46082,0 0.78824,-0.03603 0.7276,-0.08008 z m -34.89436,-2.882994 c 0.0275,-0.334841 0.032,-1.025521 0.0101,-1.534844 l -0.0399,-0.926041 -0.40802,0.752956 c -0.48243,0.890289 -0.78575,3.373306 -0.49568,4.057806 0.16349,0.385814 0.27099,0.261225 0.54363,-0.630086 0.18692,-0.611044 0.36234,-1.38495 0.38984,-1.719791 z m -4.15992,1.970886 c -0.57143,-0.422116 -1.41107,-0.409737 -1.98893,0.02932 -0.38685,0.293928 -0.24431,0.34022 0.99246,0.322315 1.22041,-0.01767 1.37481,-0.07215 0.99647,-0.351637 z m -3.19085,-0.169875 c 0.66141,-0.502087 0.58305,-0.600006 -0.46225,-0.57758 -0.69693,0.01495 -0.92545,0.13411 -0.92604,0.482871 -9.2e-4,0.548695 0.725,0.598217 1.38829,0.09471 z m 43.06093,0.26367 c 0,-0.05755 -0.47625,-0.340272 -1.05833,-0.628263 -1.13601,-0.562054 -1.43737,-0.356341 -0.4703,0.321027 0.52903,0.370542 1.52863,0.571451 1.52863,0.307236 z m 1.40818,-0.709676 c -0.31146,-0.311465 -2.24969,-0.813617 -2.43297,-0.630331 -0.16687,0.166871 1.5999,0.893037 2.20219,0.905126 0.36877,0.0074 0.4346,-0.07098 0.23078,-0.274795 z m -41.09973,-0.177869 c -0.01,-0.488972 -0.47332,-0.863163 -0.877,-0.708259 -0.62249,0.238875 -0.54878,0.584715 0.15345,0.719971 0.32742,0.06306 0.62508,0.130876 0.66146,0.150694 0.0364,0.01982 0.0643,-0.05327 0.0621,-0.162406 z m -2.49047,-0.762772 c 0.71714,-0.237623 1.41311,-0.531376 1.54658,-0.652784 0.49533,-0.450553 -0.62182,-0.528442 -1.9447,-0.135589 -0.74701,0.221838 -1.53285,0.336319 -1.74632,0.254404 -0.23713,-0.091 -0.38812,0.0089 -0.38812,0.256845 0,0.345352 0.2684,0.51438 1.07735,0.678474 0.0832,0.01688 0.73806,-0.163727 1.45521,-0.40135 z m 2.89633,-1.885482 c -0.0521,-0.983596 -0.335,-2.397996 -0.6287,-3.14311 -0.2937,-0.745114 -0.46797,-1.607228 -0.38727,-1.915809 0.0807,-0.308581 0.0766,-0.561057 -0.009,-0.561057 -0.0857,0 -0.35069,0.670525 -0.58893,1.490057 -0.41723,1.435187 -0.41295,1.535052 0.116,2.711979 0.30205,0.672057 0.7257,1.668407 0.94145,2.21411 0.21574,0.545703 0.45053,0.992188 0.52173,0.992188 0.0712,0 0.0868,-0.804761 0.0348,-1.788358 z m 1.9759,-3.12201 c 0.003,-0.988057 -0.57154,-2.277465 -0.87747,-1.968383 -0.0718,0.07253 -0.20458,1.679688 -0.29508,3.571459 l -0.16454,3.439583 0.66678,-1.984375 c 0.36672,-1.091406 0.66836,-2.467634 0.67031,-3.058284 z m -6.34646,3.852034 c 0,-0.145521 -0.26789,-0.256215 -0.59531,-0.245987 -0.56803,0.01774 -0.57106,0.02902 -0.0661,0.245987 0.29104,0.125065 0.55893,0.235759 0.59531,0.245987 0.0364,0.01023 0.0661,-0.100466 0.0661,-0.245987 z m 44.93761,-0.413174 c 0.0499,-0.04234 -0.27912,-0.268234 -0.73117,-0.501998 -0.60386,-0.312269 -1.17192,-0.378593 -2.14126,-0.250006 -2.37858,0.315531 -1.32459,1.183594 1.17501,0.96773 0.88368,-0.07631 1.64752,-0.173391 1.69742,-0.215726 z m -42.90105,-0.06088 c 0.66574,-0.423216 -0.12324,-0.729421 -1.90427,-0.739056 l -1.85208,-0.01002 1.45521,0.453334 c 1.72547,0.537528 1.88795,0.558409 2.30114,0.295742 z m 35.66657,-0.584278 c 0.26339,-0.291042 0.35982,-0.529167 0.2143,-0.529167 -0.14552,0 -0.48008,0.238125 -0.74347,0.529167 -0.26339,0.291042 -0.35983,0.529167 -0.2143,0.529167 0.14552,0 0.48008,-0.238125 0.74347,-0.529167 z m -36.88538,-0.773322 c -0.20509,-0.129829 -0.53251,-0.174799 -0.72761,-0.09993 -0.55949,0.214698 -0.41722,0.344436 0.37288,0.340037 0.52954,-0.0029 0.6261,-0.06831 0.35473,-0.240104 z m 40.58954,-0.149753 c -0.8483,-0.375047 -1.08514,-0.342161 -0.80462,0.111722 0.0959,0.155202 0.49479,0.272516 0.88639,0.260697 l 0.71198,-0.02149 z m -39.56233,-0.995154 c -0.28073,-0.618464 -0.51303,-1.630495 -0.51623,-2.248959 -0.006,-1.200298 -0.32202,-1.398671 -1.35046,-0.848265 -0.50202,0.268672 -0.49675,0.310209 0.19298,1.521354 0.60404,1.060677 1.88785,2.700349 2.11428,2.700349 0.0384,0 -0.15984,-0.506016 -0.44057,-1.124479 z m -2.14261,0.694531 c 1.03167,-0.206334 1.04885,-0.472218 0.0571,-0.883026 -1.05677,-0.437725 -2.34733,0.224376 -1.6997,0.872002 0.21954,0.219542 0.58768,0.222012 1.64262,0.01102 z m 43.098,-0.249568 c -0.20151,-0.201509 -2.58368,-0.912826 -2.58368,-0.771487 0,0.249277 1.49893,0.901374 2.09462,0.911243 0.35167,0.0058 0.57175,-0.05706 0.48906,-0.139756 z m -44.65243,-1.188182 c 0,-0.136933 -0.2527,-0.248969 -0.56156,-0.248969 -0.46733,0 -0.5067,0.06611 -0.23461,0.393962 0.33048,0.398196 0.79617,0.313387 0.79617,-0.144993 z m 6.50642,-2.265872 c -0.0769,-0.200391 -0.26635,-0.364347 -0.421,-0.364347 -0.54757,0 -0.58714,0.829571 -0.0983,2.060497 l 0.49515,1.246795 0.082,-1.289299 c 0.0451,-0.709114 0.0191,-1.453255 -0.0578,-1.653646 z m -5.12525,1.154783 c -0.35745,-0.758758 -0.56869,-0.933879 -0.9843,-0.815998 -0.997,0.28279 -0.95754,0.547446 0.18206,1.221341 0.62748,0.371049 1.16708,0.64901 1.19912,0.617691 0.032,-0.03132 -0.14655,-0.491684 -0.39688,-1.023034 z m 2.80316,-0.526942 c 0.22057,-0.807765 0.20113,-0.992188 -0.10461,-0.992188 -0.26426,0 -0.37555,0.326707 -0.37555,1.102431 0,1.283824 0.10615,1.259452 0.48016,-0.110243 z M 197.17179,18.4026 c -0.22159,-0.3382 -0.68843,-1.454407 -1.03741,-2.48046 -1.18181,-3.474653 -1.67757,-3.884234 -1.21778,-1.006097 0.39086,2.446713 1.30833,4.101467 2.27402,4.101467 0.33031,0 0.32768,-0.08608 -0.0188,-0.61491 z m -1.87033,-0.292442 c -0.23164,-0.353523 -0.59303,-1.627254 -0.80309,-2.830513 -0.43983,-2.519385 -1.02581,-3.850229 -1.95652,-4.443534 l -0.65502,-0.41756 0.68463,0.926042 c 0.96765,1.308863 1.28627,2.445089 1.29092,4.603544 0.004,1.956227 0.1261,2.359325 0.7897,2.611937 0.89466,0.340562 1.08219,0.210633 0.64938,-0.449916 z m 3.58396,0.3743 c 0,-0.147658 -0.4135,-0.713205 -0.91889,-1.256771 -1.02382,-1.101174 -1.25427,-0.724392 -0.40693,0.665343 0.49358,0.809535 1.32582,1.180782 1.32582,0.591428 z m 0.36147,-1.647944 c -0.33872,-1.451976 -0.5494,-1.7961 -1.74132,-2.844271 -1.76953,-1.55611 -2.32432,-1.942775 -2.32432,-1.619935 0,0.145184 0.11567,0.335461 0.25705,0.422837 0.14138,0.08738 0.48391,0.65995 0.76118,1.272386 0.27727,0.612436 1.00624,1.58977 1.61994,2.171854 0.61369,0.582083 1.22072,1.326224 1.34894,1.653645 0.43057,1.099511 0.46704,0.608887 0.0785,-1.056516 z m 1.22603,0.776357 c 0,-0.335989 -0.18421,-0.842004 -0.40935,-1.124479 -0.38426,-0.482132 -0.39857,-0.456868 -0.23347,0.412451 0.27027,1.423051 0.64282,1.835713 0.64282,0.712028 z m -8.04477,-1.83608 c -0.36913,-0.62988 -0.83349,-1.919699 -1.03191,-2.866266 -0.62101,-2.9625861 -0.94881,-3.0881921 -0.86114,-0.329967 0.082,2.578293 0.56955,3.841559 1.82358,4.72459 0.86621,0.609943 0.89906,-0.112772 0.0695,-1.528357 z m 9.67758,1.215336 c 0.26612,-0.240835 0.48385,-0.521568 0.48385,-0.623851 0,-0.208726 -2.76497,-1.932916 -3.55009,-2.213781 -0.30177,-0.107953 -0.007,0.353534 0.72761,1.138793 0.67924,0.726166 1.23498,1.503996 1.23498,1.728512 0,0.533143 0.49649,0.519795 1.10365,-0.02967 z m -39.20365,-1.546493 c -0.49365,-0.509322 -1.01661,-0.926041 -1.16213,-0.926041 -0.14553,0 0.13931,0.416719 0.63297,0.926041 0.49365,0.509323 1.01661,0.926042 1.16214,0.926042 0.14552,0 -0.13932,-0.416719 -0.63298,-0.926042 z m 4.36563,0.396875 c 0.33354,-0.143328 0.38245,-0.22739 0.13229,-0.22739 -0.21828,0 -0.635,0.102326 -0.92604,0.22739 -0.33355,0.143329 -0.38245,0.227391 -0.13229,0.227391 0.21828,0 0.635,-0.102326 0.92604,-0.227391 z m 36.38021,-0.396875 0.6214,-0.661458 h -1.38379 -1.38379 l 0.74236,0.653097 c 0.4083,0.359204 0.75137,0.65686 0.76238,0.661459 0.011,0.0046 0.29966,-0.289295 0.64144,-0.653098 z m -35.53846,-0.548056 c 1.97053,-0.454997 2.77073,-1.03141 3.555,-2.560798 0.65667,-1.280563 0.25889,-1.266635 -1.30658,0.04575 -0.68095,0.570866 -2.06506,1.434069 -3.0758,1.91823 -1.01074,0.48416 -1.88771,1.040682 -1.94884,1.236714 -0.0876,0.280939 0.004,0.295032 0.43051,0.06655 0.2979,-0.159432 1.35347,-0.47733 2.34571,-0.70644 z m 25.12547,-0.267326 c -0.0914,-0.666741 -0.46363,-1.708538 -0.82721,-2.315104 -0.58559,-0.976956 -0.66061,-1.027341 -0.65724,-0.441389 0.009,1.49626 0.93591,3.96875 1.48846,3.96875 0.0892,0 0.0874,-0.545515 -0.004,-1.212257 z m -29.35173,0.334341 c -0.0784,-0.204364 -0.40441,-0.440042 -0.72443,-0.523729 l -0.58185,-0.152157 0.6046,0.643566 c 0.62535,0.665659 0.95047,0.680634 0.70168,0.03232 z m 40.95534,-0.709584 c 0.0899,-0.14552 0.0374,-0.264583 -0.11668,-0.264583 -0.1541,0 -0.28019,0.119063 -0.28019,0.264583 0,0.145521 0.0525,0.264584 0.11667,0.264584 0.0642,0 0.19026,-0.119063 0.2802,-0.264584 z m -40.71257,-0.93477 c -0.0819,-0.21348 -0.36563,-0.388146 -0.63047,-0.388146 -0.26484,0 -0.94507,-0.236325 -1.51161,-0.525167 -0.56655,-0.288841 -1.07762,-0.477632 -1.13572,-0.419535 -0.27232,0.27232 0.53595,1.170301 1.3162,1.46228 0.4785,0.179064 1.10813,0.417695 1.39917,0.530291 0.57309,0.221714 0.79899,-0.04326 0.56243,-0.659723 z m 5.5464,-0.941744 c 0.59459,-0.620625 0.64874,-0.769319 0.28013,-0.769319 -0.92774,0 -3.61083,1.740894 -3.61083,2.342852 0,0.453046 2.53775,-0.745871 3.3307,-1.573533 z m 32.65556,1.077296 c 0.27579,-0.515334 0.16148,-1.064372 -0.21698,-1.042112 -0.10056,0.0059 -0.59505,0.363101 -1.09887,0.79375 l -0.91605,0.782997 h 0.97288 c 0.70542,0 1.05155,-0.146986 1.25902,-0.534635 z m 1.26927,0.250208 c -0.0521,-0.156435 -0.20791,-0.284427 -0.34616,-0.284427 -0.13824,0 -0.29402,0.127992 -0.34616,0.284427 -0.0522,0.156435 0.10363,0.284427 0.34616,0.284427 0.24254,0 0.39831,-0.127992 0.34616,-0.284427 z m -35.52596,-2.071066 c 0.58747,-0.302278 1.65903,-0.626361 2.38125,-0.720184 1.51484,-0.196791 2.23918,-0.712922 2.23918,-1.5955391 0,-0.774519 -0.0996,-0.772763 -1.14214,0.02013 -0.46323,0.35232 -1.49708,0.8975001 -2.29745,1.2115111 -2.11144,0.828394 -3.13167,1.527416 -3.60928,2.47293 l -0.42145,0.834352 0.89089,-0.836802 c 0.48999,-0.460242 1.37154,-1.084121 1.959,-1.386398 z m 22.0082,0.04403 c -0.0608,-0.402183 -0.1122,-0.13593 -0.11418,0.591674 -0.002,0.727605 0.0478,1.056663 0.11057,0.731242 0.0628,-0.325421 0.0644,-0.920733 0.004,-1.322916 z m 10.4079,0.558678 c 0.57415,-0.09181 1.04391,-0.283511 1.04391,-0.426002 0,-0.142491 -0.17014,-0.193787 -0.37809,-0.11399 -0.20794,0.0798 -0.83302,0.22727 -1.38906,0.327717 -0.55604,0.100447 -1.24079,0.301695 -1.52168,0.447217 -0.49502,0.256459 -0.49568,0.275569 -0.0217,0.622119 0.42433,0.310275 0.53745,0.288294 0.85586,-0.166301 0.20912,-0.298552 0.81586,-0.595622 1.41081,-0.69076 z m -0.14672,0.959038 c 0.0899,-0.145521 -0.0221,-0.264583 -0.24896,-0.264583 -0.22687,0 -0.41249,0.119062 -0.41249,0.264583 0,0.145521 0.11203,0.264583 0.24896,0.264583 0.13694,0 0.32256,-0.119062 0.41249,-0.264583 z m -0.49941,-2.657145 c 0.74319,-0.282561 0.61985,-0.7824381 -0.19306,-0.7824381 -0.70108,0 -3.02462,2.1968161 -2.76604,2.6151941 0.13582,0.219763 0.51689,0.02644 1.24562,-0.631923 0.57746,-0.521704 1.34853,-1.062079 1.71348,-1.200833 z m -3.3501,0.564876 c 0.25067,-0.468378 0.21437,-0.483718 -0.50345,-0.21277 -0.42548,0.1606 -0.71442,0.387746 -0.6421,0.504769 0.23734,0.38402 0.87007,0.222738 1.14555,-0.291999 z m 4.45624,0.10336 c 0.0427,-0.03431 -0.0946,-0.128448 -0.30501,-0.209191 -0.21042,-0.08074 -0.6025,0.02544 -0.87131,0.235956 -0.44923,0.351816 -0.42457,0.368728 0.30501,0.20919 0.43656,-0.09546 0.82865,-0.201644 0.87131,-0.235955 z M 162.69068,9.9503449 c -0.76696,-0.76696 -1.11151,-0.975158 -1.11151,-0.671642 0,0.455252 1.85157,2.1545931 2.08896,1.9172081 0.0737,-0.07373 -0.36612,-0.634236 -0.97745,-1.2455661 z m 1.70245,0.4857751 c -0.23799,-0.363223 -0.68659,-0.7962771 -0.99688,-0.9623411 -0.44078,-0.235896 -0.37324,-0.06435 0.30878,0.7843391 0.93003,1.157296 1.41134,1.281805 0.6881,0.178002 z m 7.17406,-1.8015071 c 0.82311,-0.797751 1.1528,-1.787934 0.59531,-1.787934 -0.14552,0 -0.26458,0.10665 -0.26458,0.237001 0,0.130351 -0.62508,0.625147 -1.38907,1.099546 -2.58103,1.602701 -3.04115,1.9338661 -3.33037,2.3969901 -0.46622,0.746534 3.36213,-0.9506501 4.38871,-1.9456031 z m -6.01927,1.5130521 c 0,-0.2045731 -0.2519,-0.5067651 -0.55978,-0.6715361 -0.44912,-0.24036 -0.52761,-0.229124 -0.39705,0.05684 0.0895,0.196031 0.23588,0.5634411 0.32528,0.8164661 0.18222,0.515731 0.63155,0.372179 0.63155,-0.201767 z m 30.55937,0.200692 c 0.14552,-0.106913 0.50271,-0.4809851 0.79375,-0.8312721 0.51558,-0.620527 0.49519,-0.617619 -0.79375,0.113233 -0.7276,0.4125641 -1.37252,0.7884601 -1.43316,0.8353231 -0.23555,0.182054 1.18383,0.0659 1.43316,-0.117284 z M 169.50721,7.1838219 c 0.60052,-0.905978 1.2948,-1.765561 1.54284,-1.910184 0.94125,-0.548801 -0.26921,-0.258191 -1.47984,0.355285 -1.06474,0.539542 -1.39948,0.917065 -2.24016,2.526486 -0.54361,1.040687 -0.98838,1.9447331 -0.98838,2.0089911 0,0.06426 0.46658,-0.2094571 1.03684,-0.6082561 0.57026,-0.3988 1.52818,-1.466345 2.1287,-2.372322 z m 29.90737,1.745085 c 0,-0.135714 -0.18431,-0.317481 -0.40958,-0.403926 -0.41977,-0.161078 -1.04618,0.469815 -1.26141,1.270428 -0.10119,0.3764061 0.004,0.3639411 0.777,-0.09228 0.4917,-0.290108 0.89399,-0.638508 0.89399,-0.774222 z m -15.35349,0.656758 c 0.23647,-0.231348 -0.6573,-0.607379 -1.84442,-0.775992 -0.65485,-0.09301 -1.99444,-0.572736 -2.97688,-1.066054 -0.98245,-0.493319 -1.99448,-0.893323 -2.24896,-0.888898 -0.40325,0.007 -0.39471,0.04655 0.0665,0.307689 0.29104,0.164804 1.18401,0.80494 1.98438,1.422526 0.80036,0.617586 1.69333,1.184093 1.98437,1.258905 0.55687,0.143143 2.82177,-0.04952 3.03505,-0.258176 z m 13.28429,-1.340968 c 0.46845,-0.564449 -0.30917,-0.409603 -1.28372,0.255625 -1.29286,0.882505 -1.34546,1.403297 -0.0693,0.686051 0.5891,-0.331094 1.19795,-0.754848 1.35301,-0.941676 z m -3.57928,0.123333 c 0.38948,-0.618464 0.89699,-1.269521 1.1278,-1.446794 0.37114,-0.285065 0.35669,-0.323287 -0.1251,-0.330729 -0.66169,-0.01022 -1.17514,0.386001 -1.92777,1.487638 -0.66854,0.978544 -0.72297,1.414364 -0.17664,1.414364 0.21645,0 0.71222,-0.506015 1.10171,-1.124479 z m -27.68902,0.35587 c 0,-0.316486 -0.43647,-0.759819 -1.17307,-1.19149 -0.64518,-0.378106 -1.25232,-0.937186 -1.3492,-1.2424 -0.11742,-0.369957 -0.26432,-0.466741 -0.44071,-0.290352 -0.48814,0.488137 0.0803,1.378151 1.46091,2.287542 0.75338,0.496229 1.39955,0.910896 1.43593,0.921481 0.0364,0.01058 0.0661,-0.207567 0.0661,-0.484781 z m 12.43542,0.156908 c 0,-0.04539 -0.38695,-0.351736 -0.8599,-0.680761 l -0.85989,-0.598226 0.74236,0.680761 c 0.68477,0.627954 0.97743,0.807073 0.97743,0.598226 z m 7.43314,-0.195324 c 0.61515,-0.329219 0.42888,-0.780475 -0.32217,-0.780475 -0.29189,0 -1.54645,-0.535781 -2.78791,-1.190625 -1.68043,-0.886391 -2.53804,-1.185288 -3.35627,-1.169737 -1.19729,0.02276 -1.07114,0.09303 1.35303,0.753748 0.6543,0.178332 1.6873,0.803436 2.45623,1.486357 1.38175,1.227189 1.78909,1.365273 2.65709,0.900732 z m 5.99921,-0.251308 c 0.37768,-0.60477 0.14373,-0.675256 -0.53391,-0.160855 -0.54455,0.41337 -0.59659,0.690021 -0.12979,0.690021 0.18327,0 0.48194,-0.238125 0.6637,-0.529166 z m -28.95056,-0.613019 c -0.46967,-0.546908 -0.82691,-0.771231 -0.94805,-0.595312 -0.48777,0.708339 -0.1792,0.98614 1.60951,1.449052 0.0507,0.01312 -0.24695,-0.371059 -0.66146,-0.85374 z m 19.75154,0.397156 c 0,-0.429324 -2.08991,-1.377355 -3.34551,-1.517598 l -1.28469,-0.143494 1.32291,0.717099 c 1.11926,0.606703 2.23615,1.013664 3.10886,1.132773 0.10914,0.0149 0.19843,-0.07005 0.19843,-0.18878 z m 8.16835,-0.163567 c 0.78769,-0.407329 1.57372,-1.20807 1.18589,-1.20807 -0.2743,0 -2.21049,1.28299 -2.21049,1.464747 0,0.204887 0.2561,0.140731 1.0246,-0.256677 z M 171.3026,7.0257769 c 0.50269,-0.452539 0.84133,-1.502018 0.48466,-1.502018 -0.46628,0 -1.02853,0.44722 -1.35434,1.077257 -0.73467,1.420707 -0.41179,1.578405 0.86968,0.424761 z m -4.69635,0.08548 c 0,-0.291042 -0.16014,-0.529167 -0.35587,-0.529167 -0.4579,0 -1.1503,-0.781134 -1.27046,-1.433283 -0.0514,-0.278983 -0.23958,-0.555894 -0.41818,-0.615358 -0.32578,-0.108469 0.50887,2.093609 1.05228,2.776246 0.40542,0.509293 0.99223,0.391936 0.99223,-0.198438 z m 20.86739,0.174093 c 0.36586,-0.440835 0.12728,-0.70326 -0.63936,-0.70326 -0.32222,0 -1.37666,-0.297656 -2.34319,-0.661458 -0.96654,-0.363802 -2.08204,-0.659302 -2.4789,-0.656665 -0.6309,0.0042 -0.53871,0.107923 0.73364,0.825526 2.4593,1.387037 4.20309,1.828112 4.72781,1.195857 z m -19.56145,-1.463726 c 0.28762,-0.563778 0.91097,-1.351558 1.38523,-1.750622 l 0.86229,-0.725571 -0.61541,-0.498336 c -0.33848,-0.274085 -0.70534,-0.498336 -0.81524,-0.498336 -0.20346,0 -1.13778,2.44932 -1.43823,3.770312 -0.23204,1.020185 0.008,0.90542 0.62136,-0.297447 z m -3.42666,0.429739 c -0.006,-0.478606 -0.46765,-1.137849 -0.66135,-0.944144 -0.0908,0.09076 -0.009,0.41473 0.18155,0.719942 0.40074,0.641695 0.4854,0.681253 0.4798,0.224202 z m 23.90383,-0.308832 c 0.17769,-0.463054 -0.35499,-0.683355 -1.65232,-0.683355 -1.34118,0 -1.5663,0.314959 -0.50097,0.700922 1.20121,0.435197 1.98199,0.428827 2.15329,-0.01757 z m -22.18145,-0.420394 c -0.2642,-0.291934 -0.53774,-0.473405 -0.60788,-0.403269 -0.17778,0.177782 0.48213,0.934058 0.81504,0.934058 0.15026,0 0.057,-0.238855 -0.20716,-0.530789 z m 9.10694,-1.453586 c 0.0107,-0.776322 -0.0538,-0.95258 -0.24193,-0.661459 -0.14107,0.218281 -0.24994,0.932656 -0.24194,1.5875 0.0111,0.906101 0.0689,1.06417 0.24194,0.661459 0.12506,-0.291042 0.23393,-1.005417 0.24193,-1.5875 z m 0.89299,0.661194 c -0.19038,-0.728014 -0.34117,-0.662524 -0.34117,0.14817 0,0.372391 0.10788,0.610397 0.23974,0.528904 0.13186,-0.08149 0.17751,-0.386177 0.10143,-0.677074 z m -9.71807,-0.938787 c -0.44157,-0.673915 -1.46924,-0.895519 -1.4734,-0.31772 -0.001,0.181901 0.38564,0.65129 0.85989,1.043086 0.67115,0.554453 0.8818,0.62488 0.95033,0.31772 0.0484,-0.21705 -0.10314,-0.686439 -0.33682,-1.043086 z m 3.5692,1.064548 c 0.74773,-0.386666 1.05525,-0.919247 0.53078,-0.919247 -0.30795,0 -1.81744,1.302918 -1.52296,1.314555 0.11636,0.0046 0.56285,-0.17329 0.99218,-0.395308 z m 7.48839,-0.251305 c 0.0824,-0.214716 -0.0239,-0.806204 -0.23628,-1.314419 -0.21234,-0.508215 -0.3903,-1.374336 -0.39546,-1.924713 l -0.009,-1.00068498 -0.37812,0.66145798 c -0.49681,0.869071 -0.48948,1.609934 0.0287,2.905063 0.44831,1.120431 0.74225,1.320238 0.99051,0.673296 z m 11.01687,0.177316 c 0.001,-0.04443 -0.65213,-0.380454 -1.45215,-0.746717 -1.53024,-0.700566 -1.59664,-0.699357 -5.16,0.09397 -1.29106,0.287435 1.58675,0.825098 4.16475,0.778103 1.34473,-0.02451 2.44606,-0.08092 2.4474,-0.125354 z m 0.5316,-0.802789 c 0,-0.284534 -1.20981,-0.839616 -1.79838,-0.825129 -0.26997,0.0066 -0.0794,0.214312 0.47547,0.518077 1.03428,0.566248 1.32291,0.63324 1.32291,0.307052 z m -21.29054,-1.029458 c 0.38151,-0.913094 0.37799,-1.012139 -0.047,-1.322916 -0.68523,-0.501054 -0.96847,-0.408012 -0.78962,0.259384 0.0877,0.327422 0.16117,0.922734 0.16315,1.322917 0.005,0.983782 0.18267,0.915312 0.67349,-0.259385 z m 13.35304,-0.02028 c 0,-0.765984 -0.36301,-0.536499 -0.64902,0.410289 -0.14167,0.46899 -0.0924,0.560273 0.23485,0.434713 0.2285,-0.08768 0.41417,-0.466502 0.41417,-0.845002 z m -0.81234,-0.675692 c -0.0102,-0.165779 -0.10405,-0.518227 -0.20849,-0.783216 -0.13767,-0.349295 -0.26837,-0.09867 -0.47527,0.911311 -0.28337,1.383334 -0.2819,1.388831 0.20849,0.783217 0.27163,-0.335442 0.4855,-0.745532 0.47527,-0.911312 z m 2.21978,0.69077 c 0.17041,-0.656529 0.062,-3.71195198 -0.13878,-3.91276798 -0.43444,-0.43444302 -0.76798,1.063475 -0.59548,2.67429198 0.17707,1.65337 0.4897,2.180696 0.73426,1.238476 z m -3.26762,-1.785937 c 0,-0.95063498 -0.0722,-1.21123198 -0.25648,-0.92604198 -0.14107,0.218281 -0.25648,0.99218798 -0.25648,1.71979198 0,0.950634 0.0722,1.211232 0.25648,0.926041 0.14106,-0.218281 0.25648,-0.992187 0.25648,-1.719791 z m 7.44044,1.536848 c 0.70188,-0.084 1.4558,-0.01629 1.78593,0.16039 0.53684,0.287305 0.57131,0.247503 0.57131,-0.659626 0,-1.062414 0.1803,-1.026866 -2.40716,-0.474613 -0.37805,0.08069 -1.03289,0.443057 -1.45521,0.805261 -0.56962,0.488552 -0.63123,0.614075 -0.23867,0.486253 0.29104,-0.09476 1.07575,-0.237713 1.7438,-0.317665 z m -20.69464,-0.654292 c -0.30882,-0.56033 -0.35027,-0.571571 -0.44435,-0.120511 -0.0571,0.273605 0.0533,0.594553 0.24535,0.713218 0.51341,0.317307 0.58426,0.106307 0.199,-0.592707 z m 18.10737,-0.343933 c -0.0933,-0.575077 0.0145,-1.10228198 0.32119,-1.57032798 0.25392,-0.387531 0.38601,-0.780261 0.29354,-0.872733 -0.0925,-0.09247 -0.1979,-0.118522 -0.23428,-0.05789 -1.32672,2.21120798 -1.65282,3.73614698 -0.74836,3.49962698 0.41077,-0.107419 0.48142,-0.299208 0.36791,-0.998676 z m 0.97576,-0.70214498 c 0,-0.291041 -0.11906,-0.455582 -0.26458,-0.365645 -0.14552,0.08994 -0.26458,0.40164698 -0.26458,0.69268798 0,0.291042 0.11906,0.455582 0.26458,0.365645 0.14552,-0.08994 0.26458,-0.401646 0.26458,-0.69268798 z m 1.58162,-0.939318 c 0.011,-0.577666 -0.31416,-1.14611902 -0.65558,-1.14611902 -0.47236,0 -0.60302,0.48626202 -0.45547,1.69504602 l 0.12616,1.03358598 0.4895,-0.636711 c 0.26923,-0.35019198 0.49215,-0.77580298 0.49539,-0.94580198 z m -20.59878,0.635409 c -0.26131,-0.259362 -0.2917,-0.228971 -0.14812,0.148113 0.0994,0.26093698 0.24731,0.40778098 0.32877,0.32631898 0.0815,-0.08146 1.7e-4,-0.29495598 -0.18065,-0.47443198 z m 22.98591,-0.35934 c 0,-0.176317 -0.0753,-0.516932 -0.16744,-0.756923 -0.14099,-0.36742 -0.30817,-0.299947 -1.05833,0.427138 -0.48999,0.474917 -0.89089,0.942651 -0.89089,1.03940798 0,0.09676 0.47625,0.0488 1.05833,-0.10656298 0.58208,-0.155367 1.05833,-0.426744 1.05833,-0.60306 z m -7.93205,-1.253613 c -0.29798,-0.30381002 -0.7992,0.026 -0.7992,0.525893 0,0.219259 0.14182,0.658717 0.31515,0.976572 0.3023,0.55436198 0.32315,0.54017298 0.51156,-0.348123 0.10802,-0.509323 0.0956,-1.028777 -0.0275,-1.154342 z m 2.6226,0.2283 c 5.2e-4,-0.145521 -0.17385,-0.03347 -0.3875,0.249008 -0.21366,0.282474 -0.38424,0.699193 -0.37909,0.926041 0.0102,0.449008 0.76489,-0.707794 0.76659,-1.175049 z m 3.83217,-0.302452 c 0.0918,-0.23911002 0.11241,-0.48915702 0.0459,-0.55566102 -0.21028,-0.210274 -0.68529,0.211962 -0.68529,0.60914502 0,0.518987 0.43362,0.482714 0.63938,-0.05348 z m 1.2127,-0.91940302 c 0,-0.14552 -0.11906,-0.190998 -0.26458,-0.101061 -0.14552,0.08994 -0.26459,0.282584 -0.26459,0.428104 0,0.145521 0.11907,0.190999 0.26459,0.101062 0.14552,-0.08994 0.26458,-0.282584 0.26458,-0.428105 z"
       id="path5" /></g></svg>
