<?xml version="1.0" encoding="UTF-8" standalone="no"?>
<!-- Created with Inkscape (http://www.inkscape.org/) -->

<svg
   width="49.504211mm"
   height="48.890968mm"
   viewBox="0 0 49.504211 48.890968"
   version="1.1"
   id="svg1"
   xml:space="preserve"
   xmlns="http://www.w3.org/2000/svg"
   xmlns:svg="http://www.w3.org/2000/svg"><defs
     id="defs1" /><g
     id="layer1"
     transform="translate(-119.04499,54.469778)"><path
       style="fill:#000000"
       d="m 142.63854,-6.0413058 c -2.30945,-1.408235 -4.75454,-5.0089882 -5.04042,-7.4227452 -0.0866,-0.731651 -0.20286,-1.330274 -0.25824,-1.330274 -0.0554,0 -0.57527,0.299586 -1.15531,0.665746 -2.13434,1.347348 -3.89634,1.831475 -6.69653,1.839934 -2.55795,0.0077 -2.61372,-0.0054 -3.2744,-0.77316 -0.63934,-0.742923 -0.66558,-0.897805 -0.53788,-3.175 0.14915,-2.659647 0.80632,-4.73766 2.03447,-6.433068 l 0.76209,-1.052039 -1.27745,-0.151295 c -2.53955,-0.300772 -6.58802,-3.047588 -7.79496,-5.288744 -0.43931,-0.815736 -0.45455,-1.017106 -0.13537,-1.787692 0.51562,-1.244812 3.08086,-3.765942 4.62657,-4.547021 0.72602,-0.366872 2.01026,-0.809629 2.85386,-0.983905 l 1.53382,-0.316865 -0.56034,-0.838549 c -1.56929,-2.348425 -1.94567,-3.610268 -1.96229,-6.578811 -0.0106,-1.900332 0.0907,-2.936806 0.3086,-3.155482 0.4771,-0.478863 2.73497,-0.696796 4.73032,-0.456578 1.84535,0.222159 4.15123,1.140078 5.55647,2.211913 l 0.84398,0.643732 0.40343,-1.778745 c 0.22189,-0.97831 0.71821,-2.340181 1.10294,-3.026381 0.93747,-1.672092 2.77889,-3.684715 3.94667,-4.313606 0.94,-0.506227 0.96222,-0.506242 1.89987,-0.0013 2.14938,1.157516 4.64824,4.706834 5.14022,7.30103 0.14563,0.767875 0.31564,1.447006 0.37782,1.509181 0.0622,0.06217 0.50782,-0.183035 0.99032,-0.544911 2.97477,-2.231083 8.47277,-3.059506 9.89261,-1.490592 1.33218,1.472039 0.46551,7.3104 -1.4484,9.757205 l -0.50893,0.650637 1.89495,0.547215 c 3.04729,0.87998 5.84054,3.025955 7.18277,5.51832 l 0.47939,0.890184 -0.82949,1.205629 c -1.66393,2.418438 -4.36927,4.210359 -7.2409,4.796121 l -1.56141,0.318498 0.55152,0.701138 c 1.26211,1.60451 1.90388,3.562317 2.04315,6.232863 0.16612,3.185603 -0.07,3.890739 -1.42945,4.268241 -2.44263,0.678304 -5.82777,0.08179 -8.36422,-1.473896 -0.84623,-0.51902 -1.56726,-0.901822 -1.60229,-0.850672 -0.035,0.05115 -0.22195,0.747845 -0.41537,1.548209 -0.679,2.809633 -2.29616,5.2330842 -4.61938,6.9225292 -1.22081,0.887773 -1.36231,0.901849 -2.44281,0.24299 z m 2.96517,-8.7003742 c 0.49566,-0.649144 1.09871,-1.806824 1.3401,-2.572621 l 0.43891,-1.392357 -1.22873,-2.130252 c -0.6758,-1.171638 -1.45346,-2.702378 -1.72814,-3.401645 -0.27467,-0.699267 -0.64589,-1.271394 -0.82493,-1.271394 -0.17905,0 -0.63952,0.779141 -1.02327,1.731425 -0.38376,0.952284 -1.0336,2.297558 -1.44408,2.989497 -0.41049,0.69194 -0.81034,1.65242 -0.88855,2.1344 -0.18385,1.132941 0.62014,2.968023 2.04702,4.672282 1.06851,1.276218 1.08946,1.286492 1.74598,0.856322 0.36547,-0.239466 1.07004,-0.966512 1.56569,-1.615657 z m -9.41235,-3.963741 1.45521,-0.719112 0.19163,-1.984375 c 0.1428,-1.478711 0.42315,-2.439472 1.10019,-3.770312 0.4997,-0.982266 0.82092,-1.785938 0.71382,-1.785938 -0.57816,0 -4.94948,1.915675 -5.73028,2.511217 -1.49929,1.143569 -2.91581,4.736762 -2.39863,6.084492 0.26964,0.702673 2.95775,0.509203 4.66806,-0.335972 z m 19.57917,-0.424145 c 0,-1.541847 -0.66661,-3.533001 -1.54024,-4.600689 -0.52317,-0.639379 -1.4702,-1.176215 -3.6173,-2.05052 -1.59972,-0.651411 -2.99973,-1.184383 -3.11112,-1.184383 -0.11139,0 0.17429,0.667695 0.63485,1.483766 0.87233,1.545669 1.53717,3.845296 1.54426,5.341427 0.004,0.792166 0.1314,0.931321 1.39319,1.51877 1.00336,0.467129 1.84824,0.647419 3.04271,0.649286 l 1.65365,0.0026 z m -15.24526,-3.932988 c 0.36776,-0.763984 0.75346,-1.74625 0.8571,-2.182812 0.17684,-0.744899 0.15866,-0.769324 -0.29533,-0.396875 -0.80341,0.659115 -2.03812,3.96875 -1.4806,3.96875 0.1376,0 0.55107,-0.625078 0.91883,-1.389063 z m 6.79193,-0.356364 c -0.53314,-1.516881 -1.17859,-2.469181 -1.47361,-2.174165 -0.21593,0.215934 0.8198,2.828889 1.35632,3.421737 0.68546,0.757428 0.71427,0.450954 0.11729,-1.247572 z m -11.35621,-3.977784 c 0.71587,-0.212591 1.83446,-0.61495 2.48577,-0.894131 1.08815,-0.466435 1.18419,-0.584586 1.18419,-1.456811 0,-0.833191 -0.1051,-0.985745 -0.8599,-1.248147 -0.47294,-0.164418 -1.75286,-0.758508 -2.84427,-1.320202 -1.32315,-0.68096 -2.49107,-1.073885 -3.505,-1.179186 -1.34249,-0.139425 -1.71442,-0.06246 -3.175,0.657007 -0.90991,0.448212 -2.0711,1.249031 -2.58042,1.779597 l -0.92604,0.964665 1.05833,0.927391 c 2.68692,2.354481 5.41748,2.881921 9.16234,1.769817 z m 21.81491,-0.131086 c 1.43921,-0.535389 3.55088,-2.163569 3.55088,-2.73787 0,-0.472753 -1.61746,-1.860715 -2.97614,-2.553861 -0.61535,-0.313931 -1.83723,-0.624371 -2.74395,-0.697155 -1.57339,-0.126296 -1.75007,-0.07378 -4.71719,1.402276 l -3.08258,1.533486 0.0792,1.046788 c 0.0747,0.987316 0.15436,1.076476 1.40212,1.569349 3.30261,1.304553 5.80866,1.433578 8.48766,0.436987 z m -17.8731,-5.588932 c -1.08338,-1.623383 -1.87223,-3.683703 -2.03445,-5.313557 -0.0893,-0.897466 -0.26859,-1.838883 -0.39837,-2.092038 -0.34779,-0.678395 -1.64302,-1.262378 -3.44268,-1.552205 -2.17776,-0.350718 -2.59844,-0.179571 -2.59844,1.057143 0,3.302221 2.60155,6.281144 7.10208,8.132297 1.95427,0.80383 2.05189,0.787347 1.37186,-0.23164 z m 9.97194,-0.352357 c 3.79494,-1.883381 5.89579,-4.571932 5.89579,-7.545107 0,-0.865162 -0.0919,-1.010305 -0.7276,-1.149585 -0.77542,-0.169883 -3.21605,0.208295 -3.97884,0.616523 -0.91976,0.492244 -1.30825,1.26076 -1.6176,3.200009 -0.32025,2.007528 -1.3834,4.776354 -2.04475,5.32522 -0.39025,0.323881 -0.48602,0.765193 -0.16605,0.765193 0.10802,0 1.29559,-0.545514 2.63905,-1.212253 z m -8.44266,-1.632018 c -0.35723,-1.298862 -1.12358,-2.788621 -1.66614,-3.238905 -0.38873,-0.322617 -0.41408,-0.28036 -0.24871,0.414575 0.40843,1.716327 1.48181,3.816517 1.95057,3.816517 0.13347,0 0.11785,-0.433797 -0.0357,-0.992187 z m 3.07417,-0.396875 c 0.26506,-0.763984 0.94343,-2.261408 1.50748,-3.327608 0.57344,-1.083947 1.02441,-2.308669 1.02296,-2.778125 -0.004,-1.212731 -1.07936,-3.342811 -2.3711,-4.695521 l -1.11836,-1.171142 -1.06029,1.190268 c -1.29204,1.450435 -1.99216,2.776151 -2.22062,4.204883 -0.15172,0.948803 -0.0435,1.292793 0.9026,2.86855 0.59124,0.984756 1.32809,2.439171 1.63743,3.232032 0.92511,2.371153 1.03221,2.401182 1.6999,0.476663 z m 2.53618,-0.03414 c 0.2598,-0.599684 0.55945,-1.504717 0.66589,-2.011185 0.17288,-0.822611 0.14858,-0.88355 -0.22776,-0.571208 -0.43913,0.36444 -1.49961,2.934503 -1.49961,3.634265 0,0.665719 0.55613,0.11462 1.06148,-1.051872 z"
       id="path4" /></g></svg>
