<?xml version="1.0" encoding="UTF-8" standalone="no"?>
<!-- Created with Inkscape (http://www.inkscape.org/) -->

<svg
   width="33.738087mm"
   height="38.78989mm"
   viewBox="0 0 33.738087 38.78989"
   version="1.1"
   id="svg1"
   xml:space="preserve"
   xmlns="http://www.w3.org/2000/svg"
   xmlns:svg="http://www.w3.org/2000/svg"><defs
     id="defs1" /><g
     id="layer1"
     transform="translate(-254.77544,-65.396368)"><path
       style="fill:#000000"
       d="m 270.07788,102.92949 c -1.63645,-1.85715 -3.21736,-4.66017 -3.36033,-5.958 -0.0678,-0.615782 0.0661,-1.930663 0.29763,-2.921959 0.23154,-0.991295 0.42097,-1.880197 0.42097,-1.975337 0,-0.09514 -0.62507,0.435346 -1.38906,1.178857 -2.06526,2.009917 -2.59821,2.20557 -5.93998,2.180668 -1.57158,-0.01171 -3.3932,-0.160539 -4.04804,-0.330729 -1.00216,-0.260455 -1.20365,-0.42232 -1.27295,-1.022572 -0.0972,-0.842314 1.14743,-3.924275 2.32754,-5.763323 0.96553,-1.504645 2.38561,-2.428934 4.73567,-3.082308 l 1.63655,-0.455003 -1.97444,-0.569488 c -1.08595,-0.313218 -2.37003,-0.873906 -2.85351,-1.245972 -1.50281,-1.156486 -4.06587,-6.075605 -3.8721,-7.43147 0.13352,-0.934265 1.3631,-1.313011 4.71014,-1.450858 2.79433,-0.115084 3.16814,-0.07386 4.22663,0.466143 0.63865,0.325816 1.79622,1.19298 2.57237,1.927032 l 1.41118,1.334639 -0.42385,-1.16542 c -0.23312,-0.640981 -0.4427,-2.001823 -0.46573,-3.024093 -0.0483,-2.14306 0.52555,-3.51007 2.61119,-6.220517 1.32171,-1.717663 1.97056,-2.194719 2.63714,-1.938928 0.64154,0.246181 2.93844,3.388413 3.8905,5.322315 0.81228,1.649978 0.82356,1.723956 0.52675,3.455522 -0.16681,0.973196 -0.38495,2.126635 -0.48475,2.563197 -0.1781,0.779075 -0.15419,0.768839 1.29293,-0.553653 0.81092,-0.741072 1.89025,-1.544744 2.39853,-1.785938 1.59919,-0.758866 7.49172,-0.460728 8.60345,0.435298 1.04801,0.844674 -1.85573,6.949395 -3.92764,8.257337 -0.53768,0.339418 -1.73882,0.848867 -2.6692,1.132107 -0.93038,0.283241 -1.51301,0.573205 -1.29473,0.644367 0.21828,0.07116 1.08341,0.344952 1.92251,0.608425 2.24328,0.70438 3.41758,1.853231 4.856,4.750779 0.7549,1.520668 1.23913,2.861654 1.25899,3.486555 0.0314,0.989019 10e-4,1.023538 -1.15834,1.325365 -0.65484,0.170444 -2.48232,0.31948 -4.06105,0.331191 -3.34374,0.0248 -3.88014,-0.162441 -6.07856,-2.121859 l -1.4896,-1.327655 0.35746,1.013136 c 0.59648,1.690613 0.76756,3.665129 0.41114,4.745099 -0.7785,2.35889 -3.78955,6.44382 -4.7498,6.44382 -0.26631,0 -0.98253,-0.56554 -1.59161,-1.25677 z"
       id="path5" /></g></svg>
