<?xml version="1.0" encoding="UTF-8" standalone="no"?>
<!-- Created with Inkscape (http://www.inkscape.org/) -->

<svg
   width="53.220352mm"
   height="53.097012mm"
   viewBox="0 0 53.220352 53.097012"
   version="1.1"
   id="svg1"
   xml:space="preserve"
   xmlns="http://www.w3.org/2000/svg"
   xmlns:svg="http://www.w3.org/2000/svg"><defs
     id="defs1" /><g
     id="layer1"
     transform="translate(-127.77896,-75.344274)"><path
       style="fill:#000000"
       d="m 153.08144,127.98648 c -2.17548,-1.32668 -4.55753,-4.96747 -5.16521,-7.89465 -0.16056,-0.77344 -0.34483,-1.40626 -0.40948,-1.40626 -0.0647,0 -0.74081,0.35131 -1.50259,0.78068 -1.82822,1.03048 -4.11179,1.60091 -6.40158,1.59909 -2.84682,-0.002 -3.70404,-0.32398 -4.05207,-1.52083 -0.843,-2.89895 -0.4934,-5.92741 1.04599,-9.06102 0.46467,-0.94589 0.82777,-1.76938 0.80689,-1.82998 -0.0209,-0.0606 -0.8835,-0.3249 -1.91694,-0.58735 -2.61122,-0.66313 -4.26887,-1.64086 -6.09922,-3.59751 -2.19007,-2.34119 -2.16806,-2.877 0.21758,-5.295999 1.9649,-1.99238 4.20208,-3.28348 6.52518,-3.76575 l 1.41661,-0.29409 -0.98575,-1.90581 c -1.73331,-3.35111 -2.0835,-8.03641 -0.71689,-9.59166 1.32779,-1.51108 5.99986,-1.33345 9.4366,0.35877 1.09141,0.5374 2.0564,1.01101 2.14443,1.05248 0.088,0.0415 0.29625,-0.61337 0.46272,-1.4552 0.4919,-2.48759 1.75847,-4.66586 3.82602,-6.5801 2.15766,-1.99767 2.63109,-2.08067 4.4118,-0.77351 2.38093,1.74776 4.21585,4.60871 4.7337,7.38064 0.28566,1.52902 0.4284,1.687 1.03131,1.14138 1.24349,-1.12535 5.04009,-2.30349 7.41398,-2.30067 3.05831,0.004 4.14069,0.8827 4.4316,3.59923 0.24832,2.3188 -0.17164,4.28448 -1.46048,6.83595 -1.09812,2.17388 -1.08248,2.51454 0.11587,2.52387 0.80754,0.006 2.78294,0.8199 4.25689,1.75328 1.72859,1.09464 4.35091,3.919439 4.35091,4.686849 0,0.68508 -1.58832,2.68689 -3.22007,4.05837 -1.32531,1.11391 -2.66708,1.75823 -4.84018,2.32425 -0.84967,0.22131 -1.59935,0.45688 -1.66595,0.52348 -0.0666,0.0666 0.10887,0.45539 0.38995,0.86395 1.55259,2.25672 2.4189,6.14549 1.9428,8.72095 -0.42296,2.288 -0.84356,2.5866 -3.79586,2.69478 -2.86294,0.1049 -5.16468,-0.39065 -7.26046,-1.56314 l -1.38415,-0.77436 -0.16097,0.72709 c -0.7999,3.61318 -2.56692,6.56181 -4.98178,8.31313 -1.20382,0.87303 -1.84289,0.92945 -2.9412,0.25967 z m 2.30697,-8.97018 c 1.49776,-1.59826 1.93069,-2.88869 1.93069,-5.75469 0,-2.30101 -0.0862,-2.81436 -0.66145,-3.93893 l -0.66146,-1.29311 -1.70482,-0.0298 c -1.64522,-0.0288 -1.72183,-7.1e-4 -2.19123,0.80278 -0.79378,1.35876 -1.11348,3.82895 -0.74074,5.72353 0.49858,2.53426 2.0414,5.21783 2.99979,5.21783 0.19105,0 0.6542,-0.32742 1.02922,-0.7276 z m -9.84326,-4.77163 c 2.03057,-0.87234 3.58053,-2.55209 4.5692,-4.95181 l 0.87205,-2.11667 -1.02269,-1.01404 -1.0227,-1.01405 -1.49949,0.59708 c -2.88837,1.15011 -4.85953,3.05686 -5.74003,5.55245 -0.47662,1.3509 -0.50409,2.93073 -0.059,3.38998 0.43333,0.44706 2.33277,0.23148 3.90261,-0.44294 z m 21.57459,0.19535 c 0.43993,-0.48612 0.45837,-0.69187 0.18066,-2.01588 -0.60336,-2.87653 -2.47464,-4.9736 -5.77233,-6.46885 l -1.77747,-0.80594 -1.05773,1.05774 -1.05774,1.05773 0.58113,1.55391 c 0.93172,2.49142 2.26179,4.02337 4.48912,5.17048 2.23625,1.15171 3.64944,1.29604 4.41436,0.45081 z m -20.91314,-9.9669 c 1.9047,-0.5898 1.98438,-0.69888 1.98438,-2.71656 v -1.782969 l -1.48047,-0.56654 c -2.33469,-0.89344 -3.99194,-0.98734 -6.101,-0.34568 -2.02157,0.61503 -4.0602,1.959699 -4.0602,2.678069 0,0.80085 0.97635,1.76393 2.43769,2.40458 2.3923,1.04877 4.57431,1.14824 7.2196,0.3291 z m 23.67825,-0.50568 c 0.79205,-0.44748 1.67443,-1.12748 1.96085,-1.51111 l 0.52078,-0.69752 -0.64452,-0.70293 c -0.35449,-0.38661 -1.53095,-1.116799 -2.61436,-1.622639 -1.79227,-0.83681 -2.12619,-0.90722 -3.70417,-0.78107 -0.95388,0.0763 -2.43752,0.43233 -3.29699,0.79128 l -1.56266,0.652639 -0.0208,1.81953 -0.0208,1.81953 1.45117,0.60299 c 1.23162,0.51176 1.83243,0.59088 3.9713,0.52294 2.24515,-0.0713 2.67726,-0.16883 3.9602,-0.89364 z m -19.8675,-6.465079 1.16492,-1.05316 -1.10329,-2.22652 c -1.55743,-3.14304 -3.97601,-5.04117 -6.8468,-5.37346 -1.61579,-0.18702 -2.02161,0.2351 -1.82467,1.89798 0.34853,2.94275 2.68495,5.91945 5.59284,7.12551 0.87313,0.36213 1.64704,0.66391 1.7198,0.67062 0.0728,0.007 0.6565,-0.46172 1.2972,-1.04097 z m 12.26522,-0.0496 c 3.10485,-1.6501 4.54609,-3.5359 4.94415,-6.46922 0.31046,-2.28784 -0.64004,-2.7356 -3.51986,-1.65812 -2.78884,1.04343 -4.18299,2.44472 -5.57353,5.60203 l -0.66485,1.50958 1.11594,1.06725 c 0.61376,0.58699 1.22087,1.06854 1.34912,1.0701 0.12825,0.002 1.18531,-0.50316 2.34903,-1.12162 z m -5.62837,-3.10886 c 0.82122,-1.97063 1.01198,-5.03764 0.42353,-6.80929 -0.48247,-1.45258 -2.07933,-3.50946 -2.72456,-3.50946 -0.77016,0 -2.13118,1.79464 -2.73337,3.60422 -0.71948,2.16203 -0.57855,4.76705 0.36998,6.8389 l 0.60928,1.33084 h 1.72436 1.72436 z"
       id="path4" /></g></svg>
