<?xml version="1.0" encoding="UTF-8" standalone="no"?>
<!-- Created with Inkscape (http://www.inkscape.org/) -->

<svg
   width="54.764042mm"
   height="51.249828mm"
   viewBox="0 0 54.764042 51.249828"
   version="1.1"
   id="svg1"
   xml:space="preserve"
   xmlns="http://www.w3.org/2000/svg"
   xmlns:svg="http://www.w3.org/2000/svg"><defs
     id="defs1" /><g
     id="layer1"
     transform="translate(-124.97058,-65.885328)"><path
       style="fill:#000000"
       d="m 135.09424,116.77796 c -5.89802,-1.3442 -10.12366,-6.75882 -10.12366,-12.97221 0,-1.92531 0.89324,-5.207474 1.89924,-6.978687 1.28873,-2.268995 3.70627,-4.539975 6.07836,-5.709851 3.79833,-1.873283 6.78731,-2.13275 12.39532,-1.076009 4.22843,0.796782 6.6508,0.833552 9.35475,0.142 3.19736,-0.817746 5.63266,-2.833889 7.00438,-5.798788 0.5615,-1.213663 0.68717,-1.875997 0.68374,-3.603628 -0.008,-4.301557 -2.10823,-7.429244 -5.98238,-8.911244 -1.754,-0.670972 -4.32823,-0.561818 -5.90112,0.250223 -2.18038,1.12568 -3.93153,3.624228 -4.23528,6.042949 -0.39029,3.107847 2.52127,5.638734 5.55578,4.829368 0.58074,-0.154899 1.37584,-0.509452 1.76688,-0.787896 1.31782,-0.938371 1.67852,-3.672358 0.4845,-3.672358 -0.35215,0 -0.56914,0.233988 -0.67473,0.727604 -0.29954,1.400313 -0.6459,1.925699 -1.55542,2.359421 -1.81785,0.866869 -3.8586,-0.613857 -3.85268,-2.795424 0.004,-1.285569 1.05363,-3.459731 2.09387,-4.335033 1.11627,-0.93928 3.39162,-1.597258 4.70238,-1.359816 3.49895,0.63383 5.58158,3.467733 5.31248,7.22884 -0.23475,3.280885 -2.00529,5.752378 -5.20812,7.269998 -1.5722,0.744966 -1.99119,0.826284 -4.25736,0.826284 -2.24571,0 -2.68235,-0.08288 -4.09767,-0.777774 -2.02314,-0.993322 -3.94231,-2.913796 -4.84485,-4.848136 -0.62614,-1.341951 -0.70836,-1.839771 -0.70954,-4.295964 -0.001,-2.69146 0.0308,-2.844156 1.02952,-4.894792 1.36687,-2.80659 3.87106,-5.359488 6.34687,-6.470307 2.70095,-1.211837 4.51483,-1.501918 7.06622,-1.13005 5.86014,0.854126 10.87397,5.58879 12.15497,11.478217 0.41892,1.92602 0.19168,6.26834 -0.42016,8.02839 -0.73677,2.119456 -2.53731,4.573292 -5.38185,7.334568 -2.19785,2.133514 -2.81912,2.922996 -3.64366,4.630209 -0.92496,1.915122 -0.9937,2.223608 -0.98916,4.439386 0.006,2.78576 0.57258,4.51971 2.16248,6.61459 3.494,4.60371 11.62622,4.28188 14.07522,-0.55702 0.85059,-1.68066 1.06401,-4.89223 0.43455,-6.53915 -1.12182,-2.935131 -3.87108,-4.098178 -6.52319,-2.759563 -1.99827,1.008602 -2.91402,3.410383 -1.98516,5.206593 0.44121,0.85322 0.9515,1.13003 1.48047,0.80311 0.30488,-0.18842 0.28715,-0.43992 -0.1086,-1.54046 -0.43632,-1.21337 -0.44044,-1.37817 -0.0532,-2.1271 0.43328,-0.83788 1.61283,-1.615285 2.44824,-1.61355 1.78597,0.0037 3.68632,2.92563 3.45674,5.31498 -0.27529,2.86501 -2.78242,5.26543 -5.72156,5.47803 -2.73281,0.19768 -5.07949,-1.31796 -6.45257,-4.16748 -0.70191,-1.45665 -0.83654,-2.04771 -0.84754,-3.72097 -0.0113,-1.7267 0.10103,-2.22113 0.8515,-3.746151 1.10626,-2.248027 3.41795,-4.44855 5.48619,-5.222381 2.01543,-0.754066 5.12678,-0.754066 7.1422,0 3.72033,1.391953 6.73767,6.058534 6.74298,10.428612 0.008,6.18429 -3.72984,11.33108 -9.43177,12.98868 -2,0.58141 -7.3299,0.40066 -9.08439,-0.30807 -3.0088,-1.21543 -5.96838,-3.79822 -7.36664,-6.42878 -0.4354,-0.81914 -1.27851,-2.90377 -1.87357,-4.63251 -1.29317,-3.75686 -2.40887,-5.679322 -4.37536,-7.539145 -3.50844,-3.318132 -8.44729,-3.980276 -12.72237,-1.705666 -2.63044,1.399564 -4.35495,4.451181 -4.35225,7.701561 0.002,2.2915 0.34592,3.48094 1.41048,4.87667 2.56067,3.35726 8.39564,3.9179 10.81774,1.03939 0.76544,-0.90967 1.17381,-2.74533 0.87611,-3.93822 -0.25578,-1.02496 -1.34093,-2.37348 -2.31541,-2.87741 -1.05066,-0.54331 -3.06808,-0.36073 -3.56798,0.32292 -0.60159,0.82272 -0.25634,1.03469 1.53377,0.94167 1.52268,-0.0791 1.75753,-0.0213 2.31186,0.56931 0.34574,0.36836 0.6805,1.13085 0.76145,1.73433 0.12949,0.96545 0.0503,1.17113 -0.76528,1.98667 -2.36274,2.36274 -6.54112,1.65999 -8.59644,-1.4458 -0.97949,-1.48012 -1.1666,-4.20066 -0.39317,-5.7167 1.15575,-2.265468 3.54023,-3.855151 6.29976,-4.199932 5.10419,-0.637726 10.12535,4.140442 10.17726,9.684752 0.0414,4.42458 -2.40286,7.95343 -6.59557,9.52212 -1.92308,0.71952 -5.21175,0.8987 -7.38865,0.40258 z m 33.80785,-1.20649 c 2.97696,-0.56457 5.87365,-2.41036 7.40068,-4.71575 2.0102,-3.03485 2.45427,-8.04553 0.99411,-11.217097 -1.07029,-2.324751 -2.19929,-3.551738 -4.15243,-4.512829 -1.53329,-0.754489 -1.9711,-0.848595 -3.85138,-0.827839 -2.58544,0.02854 -4.12573,0.639644 -5.7552,2.283354 -2.8756,2.900729 -3.38165,7.026941 -1.22665,10.001831 2.27408,3.13928 7.12607,2.78293 8.41465,-0.61802 0.79547,-2.09945 -0.15365,-4.81142 -1.68387,-4.81142 -1.10763,0 -1.42572,0.67692 -0.86784,1.84681 0.61467,1.28899 0.56978,1.89659 -0.19676,2.66314 -1.35885,1.35884 -3.25035,0.55891 -4.23132,-1.78947 -0.7095,-1.69849 -0.3743,-3.24041 1.07167,-4.929706 1.32318,-1.545833 2.62642,-2.156396 4.60283,-2.156396 2.61485,0 4.40481,1.224474 5.60821,3.836462 0.86069,1.86812 0.85661,5.49518 -0.008,7.40833 -2.61832,5.79138 -10.72688,7.16504 -15.60968,2.64443 -2.7159,-2.51445 -3.87984,-5.50199 -3.6995,-9.49568 0.16319,-3.613843 1.01861,-5.166126 5.26434,-9.552917 3.81937,-3.946271 4.75824,-5.539768 5.26565,-8.937089 0.83307,-5.577685 -1.83991,-11.146814 -6.53183,-13.609037 -2.62556,-1.377838 -4.11324,-1.74198 -6.52555,-1.597269 -3.03869,0.182287 -4.88242,0.971852 -7.0548,3.021168 -2.45248,2.313542 -3.48083,4.441681 -3.64013,7.533118 -0.1451,2.815769 0.3344,4.45726 1.78261,6.102518 3.12429,3.549384 8.5065,3.926192 12.16072,0.851372 1.02247,-0.86035 1.78127,-2.290636 2.16534,-4.081493 0.86284,-4.02327 -2.446,-7.283936 -6.13703,-6.047678 -1.75211,0.586847 -2.88375,2.103954 -2.88375,3.866043 0,1.165329 0.36884,1.653556 1.24921,1.653556 0.62764,0 0.94474,-0.485455 1.24985,-1.913417 0.18996,-0.889066 1.44839,-1.608 2.39763,-1.369755 1.03246,0.25913 1.71789,1.324667 1.71789,2.670534 0,2.714308 -2.445,4.845971 -5.55829,4.845971 -1.6473,0 -3.01482,-0.658588 -4.28355,-2.062923 -1.19517,-1.322905 -1.62342,-2.624351 -1.48649,-4.517379 0.28522,-3.943124 4.01458,-7.746703 7.99873,-8.157903 1.87032,-0.193034 4.39725,0.504366 6.19961,1.711013 3.35034,2.243 4.95902,5.559517 4.75603,9.805229 -0.14017,2.931855 -0.98885,4.823879 -3.11118,6.935975 -2.86254,2.848739 -5.24578,3.73131 -10.07111,3.729575 -2.09137,-7.52e-4 -3.86996,-0.1768 -5.68854,-0.563058 -6.18579,-1.313835 -11.19116,-0.212657 -14.64391,3.221656 -2.64572,2.631581 -3.88164,5.98434 -3.68804,10.00477 0.10842,2.25147 0.2348,2.77971 1.09093,4.55969 1.84527,3.83646 5.27492,6.00089 9.87144,6.22981 4.46423,0.22232 7.70165,-1.50353 9.31785,-4.96729 0.93307,-1.9997 0.97871,-5.118 0.10099,-6.89916 -0.884,-1.7939 -2.33233,-3.35007 -3.86487,-4.152657 -1.83229,-0.959565 -5.00827,-1.023166 -6.68392,-0.13385 -1.43179,0.759887 -2.31499,1.843667 -2.74025,3.362567 -1.02184,3.64966 2.82082,6.90138 6.23886,5.27941 0.70336,-0.33377 0.89988,-0.5867 0.89988,-1.15823 0,-1.09342 -0.53962,-1.41399 -1.80611,-1.07296 -2.63759,0.71023 -4.08243,-1.85454 -2.05,-3.63904 1.65615,-1.45412 3.81972,-1.42225 5.79417,0.0853 2.19466,1.67575 2.9668,4.77235 1.82396,7.31482 -0.60352,1.34265 -1.33081,2.05505 -2.96827,2.90747 -1.67626,0.87263 -5.35586,0.8858 -7.23155,0.0259 -3.62208,-1.66054 -5.66497,-5.13978 -5.40787,-9.21012 0.35701,-5.652124 5.16068,-9.907401 11.18421,-9.907401 6.0847,0 10.84213,4.211627 13.15036,11.641661 1.89811,6.10986 4.92056,9.26932 10.13297,10.59229 1.17421,0.29803 3.83358,0.29266 5.43464,-0.011 z M 151.74711,96.648485 c -0.75709,-0.949901 -1.37653,-1.783338 -1.37653,-1.852083 0,-0.06874 0.50602,-0.132088 1.12448,-0.140763 0.61847,-0.0087 1.69003,-0.108861 2.38125,-0.222637 0.69123,-0.113776 1.25726,-0.136444 1.25786,-0.05037 0.002,0.301834 -1.72242,3.992375 -1.8657,3.992661 -0.0797,1.59e-4 -0.76427,-0.776903 -1.52136,-1.726804 z"
       id="path4" /></g></svg>
