<?xml version="1.0" encoding="UTF-8" standalone="no"?>
<!-- Created with Inkscape (http://www.inkscape.org/) -->

<svg
   width="59.176838mm"
   height="55.483051mm"
   viewBox="0 0 59.176838 55.483051"
   version="1.1"
   id="svg1"
   xml:space="preserve"
   xmlns="http://www.w3.org/2000/svg"
   xmlns:svg="http://www.w3.org/2000/svg"><defs
     id="defs1" /><g
     id="layer1"
     transform="translate(-124.22631,55.300684)"><path
       style="fill:#000000"
       d="m 166.50921,-0.09094475 c -2.57331,-0.58577 -5.34622,-2.08367995 -7.13139,-3.85230995 -1.8724,-1.85505 -3.07204,-4.04887 -4.53063,-8.2852603 -1.31255,-3.81224 -2.04221,-5.29902 -3.58371,-7.30232 -2.0953,-2.723 -4.89052,-4.68137 -7.73317,-5.41798 -4.91979,-1.27484 -10.50764,0.38226 -13.44393,3.98687 -1.83158,2.24845 -2.36653,3.90779 -2.37548,7.36839 -0.007,2.6619 0.058,3.05234 0.76001,4.5725303 1.61862,3.50517 5.15174,5.67711 9.22149,5.66881 3.65496,-0.007 6.255,-1.57819 7.3188,-4.42144 0.64812,-1.73226 0.68264,-2.5220703 0.18281,-4.1829003 -0.51222,-1.70195 -1.77716,-3.19218 -3.39315,-3.99746 -1.50578,-0.75036 -2.203,-0.82295 -3.75789,-0.39125 -2.22803,0.6186 -3.15867,2.54817 -1.96245,4.06892 0.55241,0.70227 0.63266,0.72112 2.34946,0.55195 2.09809,-0.20674 2.71686,0.16157 2.58299,1.53746 -0.0662,0.6807203 -0.28891,0.9318403 -1.26098,1.4220203 -2.99727,1.51144 -6.41158,-0.17481 -7.30165,-3.6061203 -1.3015,-5.01743 4.51691,-8.96386 10.12592,-6.86807 1.85545,0.69328 4.40147,3.11561 5.37764,5.11638 0.55233,1.13206 0.64589,1.70544 0.6485,3.97432 0.003,2.4658303 -0.0578,2.7750203 -0.86657,4.4178403 -3.06667,6.22930995 -12.08434,7.64697 -18.39845,2.89242 -5.04674,-3.80021 -6.5879,-11.3393103 -3.57786,-17.5022903 1.13863,-2.33131 4.2357,-5.41164 6.57406,-6.53853 3.874,-1.86694 8.15372,-2.24201 12.96458,-1.1362 3.40615,0.78292 8.24194,0.9786 10.79003,0.43661 5.01793,-1.06733 9.15094,-4.80897 10.36858,-9.38672 0.47776,-1.79618 0.3688,-4.9685 -0.23816,-6.93361 -1.14465,-3.70594 -4.45863,-6.85171 -8.23814,-7.81998 -3.58621,-0.91874 -7.1041,0.11065 -9.60329,2.81007 -1.8951,2.04695 -2.62257,3.62595 -2.75991,5.99056 -0.13433,2.31266 0.23031,3.52042 1.48071,4.90446 1.44674,1.60137 2.75811,2.17934 4.94705,2.18038 3.54539,0.002 5.95313,-2.18665 5.95313,-5.41061 0,-1.63998 -0.80598,-2.64434 -2.12203,-2.64434 -1.31814,0 -1.8023,0.42721 -2.25708,1.99159 -0.47714,1.64131 -1.0505,2.1128 -2.08911,1.71792 -1.0548,-0.40103 -1.34942,-1.32243 -0.96793,-3.0271 0.87549,-3.91209 5.86932,-5.26706 8.98325,-2.4374 1.18106,1.07324 1.74384,2.53088 1.75233,4.53867 0.0203,4.80562 -4.05799,8.5934 -9.25256,8.5934 -4.42883,0 -8.03563,-2.65866 -9.41143,-6.9374 -1.65766,-5.15533 1.35291,-11.51706 6.8323,-14.43754 1.94263,-1.03541 3.54295,-1.39696 6.25991,-1.41425 5.74813,-0.0366 11.54434,4.31527 13.49482,10.13207 1.3883,4.14021 1.16509,7.92303 -0.7,11.86337 -0.94275,1.99174 -1.43345,2.61583 -4.29037,5.45669 -5.18132,5.15218 -6.31208,7.2458 -6.34147,11.74123 -0.0245,3.74156 0.97592,6.6756103 3.12532,9.1663803 2.31996,2.68843 5.38601,3.92786 9.25926,3.74299 6.25522,-0.29857 10.16409,-4.46163 9.88526,-10.5281203 -0.20694,-4.50257 -2.54328,-7.39002 -6.33203,-7.82567 -3.55685,-0.40898 -7.09719,2.61522 -7.09719,6.06249 0,1.55244 0.3661,2.48652 1.39105,3.54911 1.04996,1.08854 2.29267,1.16899 3.25118,0.21047 0.77363,-0.77362 0.83961,-1.84423 0.19676,-3.19231 -0.52486,-1.10063 -0.29764,-1.70126 0.79031,-2.0891 1.3736,-0.48967 3.08251,1.6234 3.09614,3.82837 0.009,1.49847 -1.16355,3.5383903 -2.56987,4.4699003 -1.039,0.6882 -1.46827,0.80757 -2.90418,0.80757 -2.79502,0 -4.4445,-1.18973 -5.86926,-4.2333303 -0.82777,-1.76831 -0.89638,-4.16896 -0.18015,-6.30409 0.62632,-1.86714 3.09067,-4.52433 5.1141,-5.5143 2.08965,-1.02237 5.36623,-1.1782 7.5402,-0.35861 3.02702,1.1412 5.28546,3.6137 6.3112,6.9094 0.6404,2.05759 0.68017,6.14925 0.0797,8.1961403 -1.20883,4.12045 -4.70125,7.58988 -8.89824,8.83968995 -2.03299,0.6054 -5.5639,0.73563 -7.56911,0.27917 z"
       id="path4" /></g></svg>
