<?xml version="1.0" encoding="UTF-8" standalone="no"?>
<!-- Created with Inkscape (http://www.inkscape.org/) -->

<svg
   width="41.215073mm"
   height="41.017342mm"
   viewBox="0 0 41.215073 41.017342"
   version="1.1"
   id="svg1"
   xml:space="preserve"
   xmlns="http://www.w3.org/2000/svg"
   xmlns:svg="http://www.w3.org/2000/svg"><defs
     id="defs1" /><g
     id="layer1"
     transform="translate(-106.66728,-18.36248)"><path
       style="fill:#000000"
       d="m 113.34278,59.008202 c -0.42089,-0.507135 -0.0954,-1.267718 2.15278,-5.030043 1.90487,-3.18783 4.47895,-8.608402 4.81546,-10.140545 0.10302,-0.469037 0.0596,-1.070288 -0.0986,-1.365892 -0.3242,-0.60578 -4.51315,-3.168122 -9.14533,-5.59412 -4.51928,-2.366864 -5.19873,-3.140491 -3.64953,-4.155378 1.26155,-0.826446 6.1131,-0.49248 12.56653,0.865043 2.30024,0.483869 3.49978,0.489412 3.89103,0.01798 0.74139,-0.893321 1.16623,-4.255366 1.19057,-9.421935 0.0134,-2.837656 0.12064,-5.308203 0.23837,-5.490104 0.11772,-0.181901 0.43601,-0.330729 0.7073,-0.330729 1.94192,0 4.70284,5.507057 6.10175,12.170833 0.32076,1.527968 0.70206,2.926953 0.84734,3.108854 0.6102,0.764033 2.55447,0.397908 9.03242,-1.700893 4.57319,-1.481672 5.54184,-1.589235 5.8404,-0.648543 0.52359,1.649664 -3.17392,5.180168 -9.55119,9.119807 -2.3923,1.477871 -2.74104,1.841223 -2.74104,2.855905 0,0.801552 1.94498,5.194744 4.41439,9.970957 2.20887,4.272288 2.46809,5.167285 1.64584,5.682414 -1.1622,0.7281 -3.6754,-1.106841 -9.25213,-6.755179 -2.26487,-2.293952 -4.2294,-4.170288 -4.36562,-4.169635 -0.13623,6.53e-4 -1.90677,1.740765 -3.93453,3.866915 -5.69156,5.9677 -9.54734,8.540669 -10.70623,7.144288 z"
       id="path4" /></g></svg>
