<?xml version="1.0" encoding="UTF-8" standalone="no"?>
<!-- Created with Inkscape (http://www.inkscape.org/) -->

<svg
   width="29.893377mm"
   height="27.736734mm"
   viewBox="0 0 29.893377 27.736734"
   version="1.1"
   id="svg1"
   xml:space="preserve"
   xmlns="http://www.w3.org/2000/svg"
   xmlns:svg="http://www.w3.org/2000/svg"><defs
     id="defs1" /><g
     id="layer1"
     transform="translate(-244.64864,-26.286363)"><path
       style="fill:#000000"
       d="m 255.49202,53.586849 c -1.90472,-0.777256 -6.74046,-3.935739 -7.76931,-5.074556 -2.04336,-2.261766 -3.06582,-5.457227 -3.07401,-9.607201 -0.009,-4.458822 1.17847,-8.199463 3.30788,-10.42184 0.99868,-1.042284 1.24297,-1.168212 2.1224,-1.094047 1.08891,0.09183 1.93392,0.958718 1.1797,1.210245 -0.21828,0.0728 -1.01378,0.760899 -1.76778,1.529117 -2.02805,2.066297 -2.86699,5.098768 -2.85204,10.309034 0.006,2.039541 0.12275,2.88835 0.51011,3.704166 2.34265,4.933722 6.88015,7.862873 12.16794,7.854927 3.5652,-0.0054 6.96466,-1.529082 9.80709,-4.395792 2.82704,-2.851185 4.02514,-5.98038 3.7463,-9.784569 -0.31008,-4.230293 -1.20889,-5.991551 -4.02119,-7.879668 -3.45154,-2.317292 -6.57975,-2.67552 -9.76105,-1.117789 -1.80721,0.884906 -4.38367,3.303978 -5.17869,4.862334 -2.32242,4.55233 0.0505,10.244105 4.6871,11.242497 1.14624,0.246819 3.38775,-0.426844 4.78282,-1.43743 1.52174,-1.102346 2.60754,-2.690426 2.98126,-4.360366 0.43642,-1.950132 0.14596,-3.160429 -1.07177,-4.465898 -0.85663,-0.918354 -1.17936,-1.089552 -2.05392,-1.089552 -1.79934,0 -3.69652,1.812335 -3.96095,3.783809 -0.17818,1.32846 0.54835,2.157289 1.89103,2.157289 1.05659,0 1.31509,-0.30878 1.32868,-1.587173 0.009,-0.847838 0.0762,-0.926368 0.79276,-0.926368 0.68228,0 0.80725,0.119022 0.97232,0.926041 0.43532,2.128217 -0.55412,3.439584 -2.5952,3.439584 -1.45829,0 -3.02891,-0.783337 -3.8341,-1.91224 -0.94288,-1.321956 -0.86748,-3.406198 0.17931,-4.956563 1.17237,-1.736337 2.70812,-2.717468 4.48415,-2.86475 2.40173,-0.19917 3.51883,0.549397 5.16029,3.457918 0.66679,1.18148 0.80345,1.716578 0.80345,3.145914 0,3.239357 -2.36587,6.640778 -5.70629,8.203947 -1.47812,0.691699 -1.95859,0.791776 -3.36676,0.701267 -4.05539,-0.260659 -6.97613,-3.234611 -8.01695,-8.162997 -1.04061,-4.927391 1.18503,-9.252418 5.94616,-11.555028 3.60303,-1.742522 8.05354,-1.461604 11.54071,0.728456 3.84943,2.417562 5.68855,5.758189 5.68855,10.33285 0,2.757383 -0.37762,4.533781 -1.428,6.717684 -1.67829,3.489429 -5.23481,6.573587 -9.20816,7.985169 -2.60926,0.926974 -6.65333,1.119991 -8.41384,0.401579 z"
       id="path4" /></g></svg>
