<?xml version="1.0" encoding="UTF-8" standalone="no"?>
<!-- Created with Inkscape (http://www.inkscape.org/) -->

<svg
   width="39.624714mm"
   height="55.587746mm"
   viewBox="0 0 39.624714 55.587746"
   version="1.1"
   id="svg1"
   xml:space="preserve"
   xmlns="http://www.w3.org/2000/svg"
   xmlns:svg="http://www.w3.org/2000/svg"><defs
     id="defs1" /><g
     id="layer1"
     transform="translate(-81.246973,-15.215218)"><path
       style="fill:#000000"
       d="m 99.370977,67.09122 v -3.711751 l -0.72761,-0.139262 c -5.5266,-1.057783 -8.6026,-2.596019 -11.73064,-5.866229 -3.59792,-3.761446 -5.31067,-7.47954 -5.58706,-12.12855 l -0.0787,-1.322917 1.79209,0.04123 c 2.40407,0.05531 4.14054,0.48862 6.67458,1.665526 3.60783,1.67562 7.30427,5.040936 9.02344,8.215118 l 0.50156,0.926042 0.0721,-5.151578 c 0.0396,-2.833367 0.0194,-5.28888 -0.045,-5.456695 -0.0644,-0.167816 -0.51572,-0.379902 -1.00293,-0.471304 -2.87257,-0.538898 -5.68824,-3.391695 -6.67368,-6.761675 -0.53269,-1.821687 -0.53235,-4.285429 10e-4,-8.422668 0.51443,-3.989353 0.26178,-5.9503 -1.09663,-8.511385 -0.49663,-0.936313 -0.84625,-1.759095 -0.77694,-1.828405 0.0693,-0.06931 0.77024,0.01815 1.55762,0.194359 1.67162,0.374092 3.60164,1.573448 4.56544,2.837055 0.66847,0.876408 1.14997,0.968476 1.14997,0.219886 0,-1.238311 3.186793,-6.202799 3.981683,-6.202799 0.81866,0 3.57787,4.097483 4.31941,6.414403 0.12066,0.377026 0.36965,0.223916 1.3632,-0.838267 1.35959,-1.45351 2.993,-2.332876 4.79108,-2.57933 l 1.20394,-0.165019 -0.841,1.490169 c -1.64947,2.922705 -1.88348,5.002498 -1.16717,10.373408 0.66887,5.015193 0.15612,7.794319 -1.95062,10.572344 -1.13476,1.496338 -3.30101,2.91814 -4.843,3.178656 l -1.03669,0.175148 v 5.268411 c 0,2.897626 0.0456,5.268411 0.10122,5.268411 0.0557,0 0.60335,-0.770717 1.21708,-1.712704 2.06251,-3.165657 6.03273,-6.341579 9.54906,-7.638625 1.67403,-0.617488 4.64568,-1.221907 6.03462,-1.227411 l 1.15928,-0.0046 -0.13033,1.918229 c -0.33553,4.938329 -3.5467,10.591117 -7.80245,13.735018 -2.60841,1.926947 -6.99053,3.661337 -9.25076,3.661337 h -0.86319 l -0.0734,3.770312 -0.0734,3.770312 -1.65365,0.07877 -1.653643,0.07877 z"
       id="path2" /></g></svg>
