<?xml version="1.0" encoding="UTF-8" standalone="no"?>
<!-- Created with Inkscape (http://www.inkscape.org/) -->

<svg
   width="50.571911mm"
   height="49.174458mm"
   viewBox="0 0 50.571911 49.174458"
   version="1.1"
   id="svg1"
   xml:space="preserve"
   xmlns="http://www.w3.org/2000/svg"
   xmlns:svg="http://www.w3.org/2000/svg"><defs
     id="defs1" /><g
     id="layer1"
     transform="translate(-223.9863,-15.35381)"><path
       style="fill:#000000"
       d="m 241.2378,63.742453 c -1.2035,-1.230969 -2.48943,-3.800441 -2.3879,-4.771364 0.0804,-0.76887 0.002,-0.847387 -1.35088,-1.35207 -1.22361,-0.456473 -1.56651,-0.488692 -2.31614,-0.217623 -1.46373,0.529293 -1.93616,0.202377 -1.93616,-1.339809 0,-1.015107 -0.15918,-1.531431 -0.68441,-2.220051 -0.67421,-0.883938 -0.69237,-0.889896 -1.21842,-0.399809 -0.96818,0.901999 -1.98186,1.176789 -3.10251,0.841035 -0.55505,-0.166298 -1.27681,-0.302359 -1.60392,-0.302359 -0.3271,0 -1.05743,-0.260049 -1.62294,-0.577887 -0.85796,-0.482199 -1.02822,-0.717248 -1.02822,-1.419527 0,-1.468077 1.54021,-3.045711 4.26074,-4.36427 l 1.7472,-0.846814 0.1663,-2.944189 c 0.27924,-4.943621 1.66157,-9.235256 4.19441,-13.022172 1.54464,-2.309434 4.32393,-4.930977 6.08344,-5.738171 0.70125,-0.321703 1.275,-0.731821 1.275,-0.911373 0,-0.491447 -3.14787,-2.988943 -5.96047,-4.728985 -2.61395,-1.617149 -3.02949,-2.078379 -2.42086,-2.687011 1.34362,-1.343621 7.02183,-0.514031 10.68557,1.561169 1.59529,0.9036 3.3977,2.835283 3.96556,4.249981 0.21684,0.540215 0.59148,1.0335 0.83254,1.096189 0.24105,0.06269 1.02047,0.265907 1.73203,0.451594 1.54743,0.403811 1.69768,0.271177 2.5352,-2.237928 0.71166,-2.132056 1.49743,-3.375422 2.78564,-4.407899 1.41177,-1.131509 3.50609,-2.096104 4.55796,-2.099288 1.10315,-0.0033 1.5351,0.658367 1.93254,2.960503 0.51563,2.986718 -0.15674,5.092365 -2.38612,7.472605 -1.93539,2.066352 -2.0533,2.415471 -1.15359,3.415702 0.4121,0.458139 0.82938,0.935983 0.9273,1.061877 0.0979,0.125893 0.72437,0.02025 1.39211,-0.234764 1.59115,-0.607665 3.51072,-0.248902 5.94725,1.111524 2.92386,1.632528 7.27109,6.547432 7.4469,8.419343 0.18882,2.010426 -0.65626,2.159311 -3.38045,0.59556 -4.05251,-2.326243 -4.50625,-2.561262 -6.17957,-3.200784 -0.9328,-0.356503 -1.90385,-0.732382 -2.15788,-0.835288 -0.41905,-0.169751 -0.44648,-0.03976 -0.29579,1.401896 0.22882,2.189264 -0.30209,4.801538 -1.4898,7.330282 -1.21546,2.587859 -2.34998,4.179128 -4.64455,6.514434 -2.78474,2.834188 -5.04706,4.251538 -10.06726,6.307162 -0.44992,0.184227 -0.58805,0.54245 -0.72893,1.890286 -0.20053,1.918544 -0.98084,3.707238 -1.94974,4.46938 -0.92958,0.731208 -1.46517,0.66628 -2.40118,-0.291087 z"
       id="path6" /></g></svg>
